<svg width="18" height="18" viewBox="0 0 18 18" fill="none" xmlns="http://www.w3.org/2000/svg">
<path d="M0 5.5H18V14.5C18 15.3333 17.7083 16.0417 17.125 16.625C16.5417 17.2083 15.8333 17.5 15 17.5H3C2.16667 17.5 1.45833 17.2083 0.875 16.625C0.291667 16.0417 0 15.3333 0 14.5V5.5ZM2 7.5V14.5C2 14.7833 2.09583 15.0208 2.2875 15.2125C2.47917 15.4042 2.71667 15.5 3 15.5H15C15.2833 15.5 15.5208 15.4042 15.7125 15.2125C15.9042 15.0208 16 14.7833 16 14.5V7.5H2ZM0 4.5V2.5H6V1.5C6 1.21667 6.09583 0.979167 6.2875 0.7875C6.47917 0.595833 6.71667 0.5 7 0.5H11C11.2833 0.5 11.5208 0.595833 11.7125 0.7875C11.9042 0.979167 12 1.21667 12 1.5V2.5H18V4.5H0Z" fill="#D22828"/>
</svg>
