<svg width="421" height="443" viewBox="0 0 421 443" fill="none" xmlns="http://www.w3.org/2000/svg">
<g clip-path="url(#clip0_69_915)">
<path d="M63.8158 387.263L117.106 393.141L142.958 401.926L179.131 401.857C179.131 401.857 197.376 417.753 174.68 430.863C161.971 438.179 143.846 424.904 143.846 424.904C143.846 424.904 106.885 424.841 95.3383 414.896C87.9797 408.558 80.4626 404.852 80.4626 404.852L79.4132 406.94C79.4132 406.94 111.803 438.248 116.711 441.71C121.589 445.145 157.229 449.291 160.958 450.181C164.657 451.045 169.146 452.683 168.334 456.91C167.71 460.347 163.454 460.738 159.249 460.428C155.045 460.118 115.539 453.301 112.548 452.656C105.635 451.158 69.7419 416.546 69.7419 416.546L68.8577 419.8C68.8577 419.8 100.336 454.977 102.923 462.037C103.784 464.372 101.041 503.802 100.899 506.183C100.757 508.564 98.4347 511.52 95.1059 511.422C91.6099 511.331 91.2378 506.879 90.855 504.019C90.4723 501.159 90.5765 469.364 90.2133 467.537C89.85 465.71 59.2948 428.116 59.2948 428.116L56.3125 431.913C56.3125 431.913 79.9181 467.815 80.73 472.722C81.6208 478.128 77.7088 504.259 76.7172 508.216C75.7256 512.172 71.8366 519.949 67.7825 518.655C64.6649 517.68 64.7683 508.373 65.6454 506.182C66.5225 503.991 71.0196 477.218 70.3536 475.489C69.6875 473.76 46.7374 441.18 46.7374 441.18L44.7167 444.625C44.7167 444.625 57.3992 476.866 56.8184 481.251C56.2084 485.608 44.4731 511.708 43.1612 513.556C41.8493 515.404 38.7131 520.716 35.7843 519.593C31.1787 517.849 33.8882 510.546 34.5699 507.749C35.225 504.981 45.1196 482.598 45.5415 479.617C45.9924 476.664 32.4796 451.891 32.4796 451.891L-24.0218 396.772C-24.0218 396.772 -59.0357 389.832 -60.5609 390.685C-62.0862 391.537 -82.8002 407.042 -85.2931 408.721C-86.8904 409.828 -90.4462 412.086 -93.3403 409.286C-97.0243 405.712 -93.4255 403.172 -90.0565 399.889C-86.6609 396.576 -64.5629 378.968 -60.1636 378.654C-58.799 378.564 -22.6769 381.654 -18.7699 385.218C-14.863 388.782 -15.529 387.052 -15.529 387.052L-14.0229 383.352C-14.0229 383.352 -35.9959 375.701 -41.6229 373.613C-47.2233 371.495 -65.8419 364.501 -67.2168 364.368C-68.6791 364.156 -94.0613 374.121 -96.0264 374.519C-98.3501 375.017 -102.228 374.524 -103.614 371.711C-104.842 369.309 -102.65 366.554 -98.6325 364.61C-94.5887 362.636 -68.5848 349.179 -66.793 349.264C-65.0279 349.378 -27.2566 364.656 -24.0807 365.684C-20.9048 366.711 -6.01043 373.514 -6.01043 373.514L-5.86122 370.071C-5.86122 370.071 -31.4168 350.712 -35.474 348.133C-39.5313 345.554 -53.92 336.381 -55.1087 336.045C-56.2974 335.708 -77.5945 342.776 -80.1309 343.507C-82.6407 344.209 -92.0808 344.252 -92.8477 340.935C-93.5854 337.644 -89.4093 334.296 -86.7312 333C-84.0531 331.703 -56.5559 322.172 -53.0256 322.401C-49.4953 322.63 -36.4805 331.083 -28.5813 336.419C-20.6821 341.755 1.42276 357.752 1.42276 357.752L2.69013 355.543L-23.6313 332.281C-28.2303 328.246 -39.4754 318.79 -40.8985 315.782C-43.2792 310.779 -48.8668 290.085 -49.4026 285.109C-49.6165 282.884 -53.5235 268.37 -46.3003 266.893C-40.5456 265.679 -38.5472 276.956 -37.6498 280.072C-36.7259 283.158 -30.7818 304.926 -27.8794 309.122C-24.9213 313.316 8.92151 344.027 8.92151 344.027L13.1763 338.133C13.1763 338.133 -2.27407 331.998 -10.2188 315.937C-18.534 299.111 -15.5052 294.503 -15.5052 294.503C-15.5052 294.503 -26.0607 285.462 -21.3945 273.319C-18.6242 266.124 -9.06869 252.78 -9.06869 252.78L14.3976 275.307L6.07847 290.634L44.0371 359.874L63.8158 387.263Z" fill="#FCFCFC"/>
<path d="M-63.9586 454.784C-69.1885 456.476 -84.8311 451.021 -104.566 452.57C-121.768 453.919 -139.077 465.692 -136.146 483.911C-133.214 502.129 -119.632 506.506 -114.66 506.501C-109.685 506.552 -98.6789 506.549 -98.6789 506.549L-86.4476 527.749L-63.9051 539.284C-63.9051 539.284 -66.1401 553.271 -59.4596 561.875C-52.7791 570.479 -31.7491 583.146 -16.1512 563.294C-0.553312 543.442 -17.5899 505.2 -16.2613 501.284C-13.8203 494.216 22.3758 466.071 31.4856 458.837C40.5954 451.602 75.2254 423.418 82.2252 415.861C90.2915 407.194 95.6607 400.02 95.6607 400.02C95.6607 400.02 114.911 397.655 123.404 400.115C131.898 402.574 145.993 412.654 145.993 412.654C145.993 412.654 156.767 402.717 168.089 405.354C179.412 407.99 186.606 419.253 186.606 419.253C186.606 419.253 197.954 430.939 220.839 426.229C243.725 421.518 278.655 381.001 286.693 357.725C294.731 334.449 304.463 314.001 304.14 277.17C303.957 256.758 300.431 252.366 291.097 252.292C281.764 252.218 276.399 283.221 267.818 301.353C259.951 318.001 256.833 324.932 247.653 336.109C239.265 346.299 234.528 352.02 231.261 349.628C227.995 347.236 230.452 342.96 239.528 330.727C248.604 318.494 255.87 297.879 256.851 290.655C257.813 283.627 252.211 279.638 246.081 281.205C239.952 282.771 221.62 305.151 212.164 319.441C202.708 333.731 190.446 349.574 184.177 362.712C175.487 380.906 175.824 394.942 175.824 394.942C175.824 394.942 169.982 389.986 162.867 391.402C155.753 392.819 148.374 396.985 148.374 396.985C148.374 396.985 138.472 395.484 133.91 394.688C129.348 393.892 106.342 388.076 106.342 388.076C106.342 388.076 117.354 361.423 118.388 348.051C119.395 334.708 123.025 295.125 121.241 293.391C119.049 291.285 77.5991 302.351 67.6011 304.235C57.6031 306.118 44.0535 310.959 39.1587 313.865C34.2639 316.772 30.1864 319.836 30.1864 319.836C30.1864 319.836 23.8858 307.946 20.0366 303.206C16.1874 298.467 10.0481 290.089 10.0481 290.089C10.0481 290.089 15.2297 285.521 16.5884 278C17.4592 273.239 17.4634 266.031 17.4634 266.031C17.4634 266.031 25.7102 266.77 33.3899 260.635C41.0696 254.5 63.8619 220.378 70.4447 209.824C77.0567 199.296 100.333 172.667 102.1 165.518C103.866 158.369 94.2164 153.84 83.1859 158.788C76.2891 161.898 63.3566 172.269 56.0254 181.126C48.6942 189.983 44.7189 200.138 39.8145 196.146C34.9101 192.153 51.1847 172.437 63.8987 160.959C76.6128 149.48 110.78 131.29 115.129 126.23C119.478 121.169 118.015 111.822 101.104 112.208C84.1932 112.593 57.6858 114.481 27.1512 139.991C5.52226 158.081 -9.41955 174.578 -16.9924 189.731C-24.5652 204.885 -32.6974 224.282 -23.1478 247.308C-13.5423 270.333 8.40597 265.889 5.60833 279.789C4.30742 286.134 -2.49306 291.95 -2.49306 291.95C-2.49306 291.95 4.94322 296.329 13.4757 311.804C20.7564 324.963 18.2473 329.939 18.2473 329.939C18.2473 329.939 15.1913 333.347 5.84542 345.174C-5.55952 359.609 -29.0526 401.585 -30.8821 404.937C-32.7115 408.29 -51.946 438.979 -54.9037 443.92C-58.1524 449.824 -61.1219 453.899 -63.9586 454.784Z" fill="#FCFCFC"/>
<path d="M96.279 204.106C101.098 209.949 104.762 205.932 108.714 202.419C116.719 195.284 129.944 191.502 141.164 201.455C152.383 211.408 144.304 228.931 129.13 245.976C113.956 263.02 84.0366 300.798 84.0366 300.798L94.8656 305.85C94.8656 305.85 136.007 257.879 142.443 249.594C148.878 241.308 171.969 215.117 149.274 193.852C126.579 172.587 105.08 189.773 103.141 191.665C99.5527 195.188 92.5246 199.555 96.279 204.106ZM113.708 316.523C113.708 316.523 160.121 267.691 168.419 259.414C176.716 251.138 194.04 232.556 215.246 252.584C229.497 266.065 227.516 274.152 221.433 284.568C218.088 290.284 213.629 294.059 211.485 295.883C209.739 297.388 206.673 298.934 203.301 295.778C199.659 292.335 201.249 289.361 203.632 286.749C206.014 284.137 219.882 270.164 209.759 260.649C199.636 251.133 188.529 256.283 177.752 267.687C166.976 279.091 118.893 328.933 118.893 328.933L113.708 316.523Z" fill="#FCFCFC"/>
<path d="M-64.0922 466.466C-64.0922 466.466 -54.4908 469.936 -42.7879 480.238C-31.1142 490.512 -25.5072 501.289 -25.5072 501.289C-25.5072 501.289 -57.9256 527.752 -72.5037 514.454C-87.0819 501.156 -64.0922 466.466 -64.0922 466.466ZM-56.5784 446.986C-56.5784 446.986 -59.172 450.122 -60.4435 451.633C-61.6884 453.115 -63.9849 454.813 -63.9849 454.813C-63.9849 454.813 -49.962 462.102 -36.3864 474.859C-22.8108 487.617 -16.2267 501.422 -16.2267 501.422C-16.2267 501.422 -14.363 498.207 -12.9243 496.689C-11.459 495.141 -9.48828 493.039 -9.48828 493.039C-9.48828 493.039 -14.7901 479.175 -29.1171 466.48C-43.4466 453.73 -56.5784 446.986 -56.5784 446.986ZM-37.9367 416.77C-37.9367 416.77 -22.8679 422.503 -4.83807 438.576C13.1917 454.648 19.8505 468.254 19.8505 468.254L-3.36554 487.674C-3.36554 487.674 -8.50361 474.333 -24.7145 459.546C-40.9254 444.759 -52.9686 441.038 -52.9686 441.038L-37.9367 416.77Z" fill="#FCFCFC"/>
<path d="M-30.2771 427.229C-33.0185 431.406 -32.0485 435.496 -27.3431 439.414C-21.36 444.391 -16.0619 444.79 -12.8612 442.101C-9.63381 439.383 -9.91544 433.25 -16.474 427.908C-20.7978 424.392 -27.3256 422.764 -30.2771 427.229ZM-33.8242 410.212C-33.8242 410.212 -13.0827 420.853 -0.778768 432.076C11.5252 443.3 25.4618 463.918 25.4618 463.918C25.4618 463.918 34.0079 457.185 42.174 450.692C50.3136 444.228 60.6426 434.954 60.6426 434.954C60.6426 434.954 26.971 439.601 8.41419 421.179C-10.1426 402.756 -11.0608 371.203 -11.0608 371.203C-11.0608 371.203 -19.0911 383.696 -24.0413 392.695C-28.0597 400.087 -33.8242 410.212 -33.8242 410.212Z" fill="#FCFCFC"/>
<path d="M22.0058 341.219C13.1105 351.908 -0.205629 370.956 9.18295 374.659C18.5715 378.363 24.3785 358.821 33.0314 350.155C41.6844 341.489 55.211 336.147 53.5381 330.134C51.8918 324.091 37.8359 322.167 22.0058 341.219Z" fill="#FCFCFC"/>
<path d="M55.2222 327.877C57.608 332.991 53.593 336.807 49.2224 338.964C45.7551 340.715 40.9813 339.565 38.282 336.142C35.1377 332.152 38.9305 324.714 44.9614 323.432C51.0215 322.176 53.6747 324.596 55.2222 327.877Z" fill="#FCFCFC"/>
<path d="M101.916 350.886C106.951 352.529 112.381 349.729 114.044 344.632C115.707 339.534 112.974 334.07 107.939 332.428C102.904 330.785 97.4735 333.585 95.8104 338.682C94.1472 343.779 96.8807 349.243 101.916 350.886Z" fill="#FCFCFC"/>
<path d="M82.5655 324.201C87.8139 322.064 90.5227 316.535 88.6158 311.852C86.7089 307.169 80.9083 305.104 75.6599 307.242C70.4114 309.379 67.7026 314.908 69.6095 319.591C71.5165 324.274 77.317 326.338 82.5655 324.201Z" fill="#FCFCFC"/>
<path d="M187.006 371.382C181.426 379.432 176.666 390.154 182.951 394.391C189.235 398.628 198.675 385.819 202.425 381.708C206.175 377.597 214.468 363.528 209.278 359.381C202.491 353.938 194.183 360.996 187.006 371.382Z" fill="#FCFCFC"/>
<path d="M221.227 350.731C226.279 353.683 234.408 359.763 238.681 354.259C242.954 348.755 233.074 343.482 228.824 340.353C224.545 337.198 217.107 333.405 213.375 337.906C209.643 342.407 217.811 348.737 221.227 350.731ZM38.7198 204.548C41.5351 206.849 48.6821 215.879 53.7174 209.949C58.7527 204.019 46.9645 195.51 45.1277 193.834C43.2908 192.159 36.1788 187.541 32.4288 191.652C28.6788 195.763 34.4517 201.029 38.7198 204.548Z" fill="#FCFCFC"/>
</g>
<defs>
<clipPath id="clip0_69_915">
<rect width="505.144" height="505.144" fill="white" transform="translate(47.4282) rotate(42.3706)"/>
</clipPath>
</defs>
</svg>
