<svg width="284" height="270" viewBox="0 0 284 270" fill="none" xmlns="http://www.w3.org/2000/svg">
<g clip-path="url(#clip0_175_8167)">
<path d="M35.1833 269.361L72.2493 273.449L90.2308 279.559L115.391 279.511C115.391 279.511 128.081 290.567 112.295 299.686C103.455 304.775 90.8481 295.541 90.8481 295.541C90.8481 295.541 65.1401 295.498 57.1087 288.58C51.9904 284.172 46.7619 281.594 46.7619 281.594L46.032 283.046C46.032 283.046 68.5606 304.823 71.9743 307.231C75.3677 309.62 100.157 312.504 102.75 313.123C105.323 313.724 108.445 314.863 107.881 317.803C107.447 320.194 104.486 320.466 101.562 320.25C98.6375 320.035 71.1593 315.293 69.0791 314.844C64.2708 313.802 39.3051 289.728 39.3051 289.728L38.6901 291.991C38.6901 291.991 60.5845 316.458 62.3839 321.369C62.9831 322.993 61.0755 350.419 60.9766 352.075C60.8778 353.731 59.2624 355.787 56.9471 355.719C54.5154 355.656 54.2566 352.559 53.9904 350.57C53.7242 348.581 53.7967 326.466 53.544 325.195C53.2914 323.924 32.0387 297.776 32.0387 297.776L29.9644 300.416C29.9644 300.416 46.3832 325.388 46.9479 328.801C47.5675 332.561 44.8465 350.737 44.1568 353.489C43.4671 356.241 40.7621 361.65 37.9423 360.75C35.7739 360.072 35.8458 353.599 36.4558 352.074C37.0659 350.55 40.1939 331.929 39.7306 330.726C39.2673 329.523 23.3044 306.862 23.3044 306.862L21.8989 309.258C21.8989 309.258 30.7202 331.684 30.3162 334.733C29.8919 337.764 21.7294 355.918 20.817 357.203C19.9045 358.489 17.7231 362.183 15.686 361.403C12.4826 360.19 14.3672 355.11 14.8413 353.164C15.2969 351.239 22.1792 335.67 22.4726 333.597C22.7862 331.543 13.3874 314.312 13.3874 314.312L-25.9121 275.975C-25.9121 275.975 -50.266 271.147 -51.3268 271.74C-52.3877 272.333 -66.7953 283.118 -68.5293 284.285C-69.6403 285.055 -72.1135 286.626 -74.1265 284.678C-76.6889 282.192 -74.1858 280.426 -71.8425 278.142C-69.4807 275.838 -54.1104 263.591 -51.0505 263.373C-50.1013 263.31 -24.9766 265.459 -22.2592 267.938C-19.5417 270.417 -20.005 269.214 -20.005 269.214L-18.9574 266.64C-18.9574 266.64 -34.2406 261.318 -38.1545 259.866C-42.0499 258.393 -55 253.528 -55.9563 253.436C-56.9735 253.288 -74.628 260.22 -75.9948 260.496C-77.6111 260.842 -80.3081 260.5 -81.2724 258.543C-82.1263 256.872 -80.6016 254.956 -77.8074 253.604C-74.9948 252.231 -56.9078 242.871 -55.6616 242.93C-54.4338 243.01 -28.1621 253.636 -25.9531 254.351C-23.7441 255.065 -13.3843 259.797 -13.3843 259.797L-13.2805 257.402C-13.2805 257.402 -31.0557 243.937 -33.8777 242.143C-36.6997 240.349 -46.7077 233.97 -47.5346 233.736C-48.3614 233.502 -63.1745 238.418 -64.9387 238.926C-66.6844 239.414 -73.2505 239.444 -73.7839 237.137C-74.297 234.848 -71.3923 232.519 -69.5295 231.617C-67.6668 230.716 -48.5412 224.086 -46.0857 224.245C-43.6301 224.405 -34.5777 230.284 -29.0834 233.996C-23.5891 237.707 -8.21415 248.834 -8.21415 248.834L-7.33264 247.297L-25.6405 231.117C-28.8393 228.311 -36.6608 221.734 -37.6507 219.642C-39.3066 216.162 -43.193 201.768 -43.5657 198.307C-43.7145 196.76 -46.432 186.664 -41.4079 185.637C-37.4052 184.792 -36.0152 192.637 -35.3911 194.804C-34.7484 196.95 -30.614 212.091 -28.5952 215.01C-26.5377 217.927 -2.9984 239.288 -2.9984 239.288L-0.0389847 235.188C-0.0389847 235.188 -10.7855 230.921 -16.3115 219.75C-22.095 208.047 -19.9884 204.841 -19.9884 204.841C-19.9884 204.841 -27.3303 198.553 -24.0847 190.107C-22.1578 185.103 -15.5115 175.821 -15.5115 175.821L0.810472 191.489L-4.97588 202.15L21.4262 250.31L35.1833 269.361Z" fill="#FCFCFC"/>
<path d="M-53.6894 316.324C-57.3271 317.502 -68.2073 313.707 -81.9338 314.785C-93.8985 315.723 -105.938 323.911 -103.899 336.583C-101.86 349.255 -92.4131 352.3 -88.9547 352.296C-85.4945 352.332 -77.8391 352.33 -77.8391 352.33L-69.3316 367.075L-53.6522 375.099C-53.6522 375.099 -55.2068 384.827 -50.5602 390.812C-45.9136 396.796 -31.2861 405.606 -20.437 391.799C-9.58795 377.991 -21.4378 351.391 -20.5136 348.667C-18.8158 343.751 6.36041 324.175 12.6967 319.143C19.033 314.112 43.1198 294.508 47.9886 289.252C53.599 283.224 57.3336 278.233 57.3336 278.233C57.3336 278.233 70.7232 276.589 76.6307 278.299C82.5383 280.01 92.3422 287.021 92.3422 287.021C92.3422 287.021 99.8357 280.109 107.711 281.943C115.587 283.777 120.591 291.611 120.591 291.611C120.591 291.611 128.483 299.739 144.402 296.463C160.32 293.187 184.615 265.005 190.206 248.815C195.797 232.626 202.566 218.403 202.341 192.785C202.214 178.588 199.761 175.533 193.269 175.481C186.777 175.43 183.046 196.994 177.077 209.606C171.605 221.185 169.437 226.006 163.052 233.78C157.218 240.868 153.922 244.847 151.65 243.183C149.378 241.519 151.088 238.546 157.4 230.037C163.713 221.528 168.767 207.19 169.449 202.165C170.119 197.277 166.222 194.502 161.958 195.592C157.695 196.681 144.945 212.247 138.368 222.187C131.79 232.126 123.261 243.146 118.901 252.284C112.857 264.939 113.091 274.701 113.091 274.701C113.091 274.701 109.028 271.254 104.079 272.24C99.1309 273.225 93.9984 276.122 93.9984 276.122C93.9984 276.122 87.1111 275.078 83.938 274.525C80.7649 273.971 64.763 269.926 64.763 269.926C64.763 269.926 72.4221 251.388 73.1413 242.086C73.842 232.805 76.3666 205.274 75.1259 204.068C73.6014 202.603 44.7709 210.3 37.8168 211.61C30.8627 212.92 21.4383 216.287 18.0337 218.309C14.6291 220.33 11.7931 222.462 11.7931 222.462C11.7931 222.462 7.41066 214.192 4.73335 210.895C2.05604 207.598 -2.21416 201.771 -2.21416 201.771C-2.21416 201.771 1.38994 198.594 2.33493 193.363C2.94063 190.051 2.94358 185.038 2.94358 185.038C2.94358 185.038 8.67962 185.552 14.0212 181.284C19.3628 177.017 35.216 153.284 39.7947 145.943C44.3936 138.62 60.5832 120.098 61.8122 115.126C63.0411 110.154 56.329 107.003 48.6568 110.445C43.8597 112.608 34.8645 119.822 29.7653 125.982C24.6661 132.143 21.9011 139.206 18.4898 136.429C15.0786 133.651 26.3984 119.939 35.2416 111.955C44.0848 103.971 67.8497 91.3186 70.8746 87.7989C73.8995 84.2791 72.882 77.7779 61.1197 78.0461C49.3574 78.3142 30.9202 79.6272 9.6819 97.3707C-5.36209 109.953 -15.7549 121.428 -21.0221 131.967C-26.2894 142.507 -31.9458 155.999 -25.3035 172.015C-18.6225 188.03 -3.35633 184.939 -5.30223 194.607C-6.20708 199.02 -10.9371 203.065 -10.9371 203.065C-10.9371 203.065 -5.76484 206.111 0.169891 216.875C5.23398 226.027 3.48878 229.488 3.48878 229.488C3.48878 229.488 1.36318 231.859 -5.1373 240.085C-13.07 250.126 -29.4106 279.322 -30.6831 281.654C-31.9555 283.985 -45.3341 305.332 -47.3913 308.768C-49.6509 312.874 -51.7164 315.709 -53.6894 316.324Z" fill="#FCFCFC"/>
<path d="M57.7626 141.966C61.1144 146.03 63.6631 143.236 66.4121 140.793C71.9798 135.829 81.1783 133.199 88.982 140.122C96.7858 147.044 91.1662 159.233 80.6121 171.088C70.0579 182.944 49.2474 209.22 49.2474 209.22L56.7795 212.734C56.7795 212.734 85.3951 179.368 89.8716 173.605C94.3481 167.842 110.408 149.625 94.623 134.834C78.8377 120.043 63.8838 131.997 62.5353 133.312C60.0396 135.763 55.1512 138.8 57.7626 141.966ZM69.8853 220.157C69.8853 220.157 102.168 186.192 107.939 180.435C113.711 174.679 125.76 161.754 140.51 175.684C150.422 185.062 149.044 190.686 144.813 197.931C142.487 201.907 139.386 204.533 137.894 205.802C136.679 206.848 134.547 207.923 132.202 205.728C129.668 203.333 130.774 201.265 132.432 199.448C134.089 197.631 143.735 187.912 136.694 181.294C129.653 174.676 121.927 178.258 114.431 186.189C106.936 194.121 73.4916 228.789 73.4916 228.789L69.8853 220.157Z" fill="#FCFCFC"/>
<path d="M-30.2636 297.159C-32.1703 300.064 -31.4957 302.908 -28.2228 305.634C-24.0613 309.096 -20.3762 309.373 -18.1499 307.503C-15.9051 305.612 -16.101 301.347 -20.6628 297.631C-23.6703 295.185 -28.2106 294.053 -30.2636 297.159ZM-32.7307 285.323C-32.7307 285.323 -18.304 292.724 -9.74602 300.53C-1.18802 308.337 8.50557 322.678 8.50557 322.678C8.50557 322.678 14.4498 317.994 20.1298 313.478C25.7912 308.982 32.9756 302.532 32.9756 302.532C32.9756 302.532 9.55528 305.764 -3.35187 292.95C-16.259 280.136 -16.8977 258.19 -16.8977 258.19C-16.8977 258.19 -22.4831 266.879 -25.9263 273.138C-28.7212 278.28 -32.7307 285.323 -32.7307 285.323Z" fill="#FCFCFC"/>
<path d="M6.10395 237.335C-0.0831476 244.769 -9.34518 258.018 -2.81496 260.594C3.71526 263.17 7.75427 249.578 13.7728 243.55C19.7914 237.522 29.1998 233.806 28.0362 229.624C26.8911 225.422 17.1146 224.083 6.10395 237.335Z" fill="#FCFCFC"/>
<path d="M29.2055 228.055C30.8649 231.612 28.0723 234.266 25.0324 235.766C22.6207 236.984 19.3003 236.184 17.4228 233.803C15.2357 231.028 17.8738 225.855 22.0686 224.963C26.2837 224.089 28.1291 225.772 29.2055 228.055Z" fill="#FCFCFC"/>
<path d="M61.6853 244.059C65.1874 245.201 68.9642 243.254 70.121 239.708C71.2778 236.163 69.3765 232.362 65.8744 231.22C62.3723 230.077 58.5954 232.025 57.4386 235.57C56.2818 239.115 58.1831 242.916 61.6853 244.059Z" fill="#FCFCFC"/>
<path d="M48.2256 225.497C51.8761 224.011 53.7602 220.165 52.4339 216.908C51.1075 213.651 47.0729 212.215 43.4224 213.701C39.7718 215.188 37.8877 219.033 39.2141 222.291C40.5405 225.548 44.575 226.984 48.2256 225.497Z" fill="#FCFCFC"/>
<path d="M120.869 258.314C116.988 263.914 113.677 271.371 118.048 274.318C122.419 277.265 128.986 268.356 131.594 265.497C134.202 262.637 139.97 252.852 136.36 249.967C131.64 246.181 125.861 251.09 120.869 258.314Z" fill="#FCFCFC"/>
<path d="M144.672 243.95C148.186 246.004 153.84 250.233 156.812 246.405C159.784 242.576 152.912 238.909 149.956 236.732C146.979 234.537 141.806 231.899 139.21 235.03C136.614 238.161 142.296 242.563 144.672 243.95ZM17.7288 142.273C19.6871 143.874 24.6582 150.155 28.1605 146.03C31.6628 141.905 23.4635 135.987 22.1859 134.821C20.9082 133.656 15.9615 130.444 13.3532 133.303C10.7448 136.163 14.7602 139.825 17.7288 142.273Z" fill="#FCFCFC"/>
</g>
<defs>
<clipPath id="clip0_175_8167">
<rect width="351.352" height="351.352" fill="white" transform="translate(23.7852) rotate(42.3706)"/>
</clipPath>
</defs>
</svg>
