<svg width="24" height="24" viewBox="0 0 24 24" fill="none" xmlns="http://www.w3.org/2000/svg">
<path d="M13.4955 4.94463C12.3245 3.78888 10.9225 3.21635 9.28926 3.22705C7.65606 3.23775 6.26159 3.8286 5.10584 4.99959C3.95009 6.17059 3.37757 7.57268 3.38827 9.20587C3.39897 10.8391 3.98981 12.2335 5.16081 13.3893L11.4099 19.557C12.2543 20.3905 13.2638 20.8034 14.4384 20.7957C15.613 20.788 16.617 20.3619 17.4504 19.5174C18.2839 18.6729 18.6968 17.6634 18.6891 16.4889C18.6814 15.3143 18.2553 14.3103 17.4109 13.4768L11.4996 7.64252C10.9817 7.13132 10.3647 6.87807 9.64881 6.88276C8.93289 6.88745 8.31933 7.14877 7.80813 7.66671C7.29694 8.18465 7.04368 8.80158 7.04837 9.5175C7.05307 10.2334 7.31438 10.847 7.83232 11.3582L14.0814 17.5259L15.4149 16.1747L9.16588 10.007C9.0195 9.86256 8.94569 9.69524 8.94445 9.50507C8.9432 9.31491 9.01481 9.14664 9.15928 9.00026C9.30375 8.85389 9.47107 8.78008 9.66123 8.77883C9.8514 8.77759 10.0197 8.8492 10.166 8.99367L16.0773 14.828C16.5391 15.306 16.7749 15.8666 16.7847 16.5097C16.7945 17.1529 16.566 17.711 16.0993 18.1839C15.6326 18.6568 15.0748 18.8953 14.426 18.8996C13.7772 18.9038 13.2163 18.6726 12.7434 18.2058L6.49437 12.0381C5.68382 11.2604 5.2777 10.315 5.276 9.2019C5.27431 8.08883 5.66797 7.13258 6.45699 6.33315C7.2349 5.54498 8.17479 5.15008 9.27668 5.14846C10.3786 5.14683 11.3403 5.52927 12.162 6.29577L18.7488 12.7969L20.0824 11.4457L13.4955 4.94463Z" fill="#D22828"/>
</svg>
