<svg width="47" height="35" viewBox="0 0 47 35" fill="none" xmlns="http://www.w3.org/2000/svg">
<path d="M10.75 34.5C8.97917 34.5 7.47396 33.8802 6.23438 32.6406C4.99479 31.401 4.375 29.8958 4.375 28.125H0.125V4.75C0.125 3.58125 0.541146 2.58073 1.37344 1.74844C2.20573 0.916146 3.20625 0.5 4.375 0.5H34.125V9H40.5L46.875 17.5V28.125H42.625C42.625 29.8958 42.0052 31.401 40.7656 32.6406C39.526 33.8802 38.0208 34.5 36.25 34.5C34.4792 34.5 32.974 33.8802 31.7344 32.6406C30.4948 31.401 29.875 29.8958 29.875 28.125H17.125C17.125 29.8958 16.5052 31.401 15.2656 32.6406C14.026 33.8802 12.5208 34.5 10.75 34.5ZM10.75 30.25C11.3521 30.25 11.8568 30.0464 12.2641 29.6391C12.6714 29.2318 12.875 28.7271 12.875 28.125C12.875 27.5229 12.6714 27.0182 12.2641 26.6109C11.8568 26.2036 11.3521 26 10.75 26C10.1479 26 9.64323 26.2036 9.23594 26.6109C8.82865 27.0182 8.625 27.5229 8.625 28.125C8.625 28.7271 8.82865 29.2318 9.23594 29.6391C9.64323 30.0464 10.1479 30.25 10.75 30.25ZM4.375 23.875H6.075C6.67708 23.2375 7.36771 22.724 8.14688 22.3344C8.92604 21.9448 9.79375 21.75 10.75 21.75C11.7063 21.75 12.574 21.9448 13.3531 22.3344C14.1323 22.724 14.8229 23.2375 15.425 23.875H29.875V4.75H4.375V23.875ZM36.25 30.25C36.8521 30.25 37.3568 30.0464 37.7641 29.6391C38.1714 29.2318 38.375 28.7271 38.375 28.125C38.375 27.5229 38.1714 27.0182 37.7641 26.6109C37.3568 26.2036 36.8521 26 36.25 26C35.6479 26 35.1432 26.2036 34.7359 26.6109C34.3286 27.0182 34.125 27.5229 34.125 28.125C34.125 28.7271 34.3286 29.2318 34.7359 29.6391C35.1432 30.0464 35.6479 30.25 36.25 30.25ZM34.125 19.625H43.1563L38.375 13.25H34.125V19.625Z" fill="#D22828"/>
</svg>
