<svg width="39" height="39" viewBox="0 0 39 39" fill="none" xmlns="http://www.w3.org/2000/svg">
<path d="M19.5 38.625C16.8438 38.625 14.3557 38.1203 12.0359 37.1109C9.71615 36.1016 7.6974 34.738 5.97969 33.0203C4.26198 31.3026 2.89844 29.2839 1.88906 26.9641C0.879688 24.6443 0.375 22.1563 0.375 19.5C0.375 16.8438 0.879688 14.3557 1.88906 12.0359C2.89844 9.71615 4.26198 7.6974 5.97969 5.97969C7.6974 4.26198 9.71615 2.89844 12.0359 1.88906C14.3557 0.879688 16.8438 0.375 19.5 0.375C22.4042 0.375 25.1578 0.994792 27.7609 2.23438C30.3641 3.47396 32.5688 5.22708 34.375 7.49375V2.5H38.625V15.25H25.875V11H31.7188C30.2667 9.01667 28.4781 7.45833 26.3531 6.325C24.2281 5.19167 21.9438 4.625 19.5 4.625C15.3563 4.625 11.8411 6.06823 8.95469 8.95469C6.06823 11.8411 4.625 15.3563 4.625 19.5C4.625 23.6438 6.06823 27.1589 8.95469 30.0453C11.8411 32.9318 15.3563 34.375 19.5 34.375C23.2188 34.375 26.4682 33.1708 29.2484 30.7625C32.0286 28.3542 33.6667 25.3083 34.1625 21.625H38.5188C37.9875 26.4771 35.9068 30.5234 32.2766 33.7641C28.6464 37.0047 24.3875 38.625 19.5 38.625ZM25.45 28.425L17.375 20.35V8.875H21.625V18.65L28.425 25.45L25.45 28.425Z" fill="#D22828"/>
</svg>
