<svg width="47" height="41" viewBox="0 0 47 41" fill="none" xmlns="http://www.w3.org/2000/svg">
<path d="M4.375 27.875C3.20625 27.875 2.20573 27.4589 1.37344 26.6266C0.541146 25.7943 0.125 24.7938 0.125 23.625V4.5C0.125 3.33125 0.541146 2.33073 1.37344 1.49844C2.20573 0.666146 3.20625 0.25 4.375 0.25H42.625C43.7938 0.25 44.7943 0.666146 45.6266 1.49844C46.4589 2.33073 46.875 3.33125 46.875 4.5V23.625C46.875 24.7938 46.4589 25.7943 45.6266 26.6266C44.7943 27.4589 43.7938 27.875 42.625 27.875H4.375ZM4.375 4.5V23.625H42.625V4.5H4.375ZM4.53438 35.3125L4.375 32.125L42.5719 30.1063L42.7313 33.2938L4.53438 35.3125ZM4.375 40.5719V37.3844H42.625V40.5719H4.375ZM19.7813 20.4375C22.4021 20.4375 24.9255 19.9771 27.3516 19.0563C29.7776 18.1354 31.8938 16.7188 33.7 14.8063C33.9125 16.2938 34.6917 17.4271 36.0375 18.2063C37.3833 18.9854 38.8708 19.375 40.5 19.375V8.75C38.8708 8.75 37.3833 9.14844 36.0375 9.94531C34.6917 10.7422 33.9125 11.9021 33.7 13.425C31.8229 11.5833 29.6891 10.1667 27.2984 9.175C24.9078 8.18333 22.4021 7.6875 19.7813 7.6875C16.9833 7.6875 14.2917 8.17448 11.7063 9.14844C9.12083 10.1224 7.03125 11.7604 5.4375 14.0625C7.03125 16.3646 9.12083 18.0026 11.7063 18.9766C14.2917 19.9505 16.9833 20.4375 19.7813 20.4375Z" fill="#D22828"/>
</svg>
