<svg width="51" height="41" viewBox="0 0 51 41" fill="none" xmlns="http://www.w3.org/2000/svg">
<path d="M2.01875 22.2625C1.38125 20.9875 0.885417 19.6948 0.53125 18.3844C0.177083 17.074 0 15.7458 0 14.4C0 10.4333 1.34583 7.10417 4.0375 4.4125C6.72917 1.72083 10.0583 0.375 14.025 0.375C16.2563 0.375 18.3813 0.844271 20.4 1.78281C22.4188 2.72135 24.1188 4.02292 25.5 5.6875C26.8813 4.02292 28.5813 2.72135 30.6 1.78281C32.6188 0.844271 34.7438 0.375 36.975 0.375C40.9417 0.375 44.2708 1.72083 46.9625 4.4125C49.6542 7.10417 51 10.4333 51 14.4C51 15.7458 50.8229 17.074 50.4688 18.3844C50.1146 19.6948 49.6188 20.9875 48.9813 22.2625C48.5917 21.5896 48.1313 20.9875 47.6 20.4563C47.0688 19.925 46.449 19.5 45.7406 19.1813C46.0594 18.3667 46.3073 17.5698 46.4844 16.7906C46.6615 16.0115 46.75 15.2146 46.75 14.4C46.75 11.6375 45.8115 9.31771 43.9344 7.44063C42.0573 5.56354 39.7375 4.625 36.975 4.625C34.1063 4.625 31.9016 5.41302 30.3609 6.98906C28.8203 8.5651 27.2 10.3271 25.5 12.275C23.8 10.2917 22.1797 8.52083 20.6391 6.9625C19.0984 5.40417 16.8938 4.625 14.025 4.625C11.2625 4.625 8.94271 5.56354 7.06563 7.44063C5.18854 9.31771 4.25 11.6375 4.25 14.4C4.25 15.2146 4.33854 16.0115 4.51563 16.7906C4.69271 17.5698 4.94063 18.3667 5.25938 19.1813C4.55104 19.5 3.93125 19.925 3.4 20.4563C2.86875 20.9875 2.40833 21.5896 2.01875 22.2625ZM0 40.75V37.4031C0 35.8448 0.788021 34.5964 2.36406 33.6578C3.9401 32.7193 5.98542 32.25 8.5 32.25C8.96042 32.25 9.40313 32.2589 9.82813 32.2766C10.2531 32.2943 10.6604 32.3385 11.05 32.4094C10.5542 33.1177 10.1823 33.8792 9.93438 34.6938C9.68646 35.5083 9.5625 36.376 9.5625 37.2969V40.75H0ZM12.75 40.75V37.2969C12.75 34.9948 13.9276 33.1354 16.2828 31.7188C18.638 30.3021 21.7104 29.5938 25.5 29.5938C29.325 29.5938 32.4063 30.3021 34.7438 31.7188C37.0813 33.1354 38.25 34.9948 38.25 37.2969V40.75H12.75ZM41.4375 40.75V37.2969C41.4375 36.376 41.3224 35.5083 41.0922 34.6938C40.862 33.8792 40.5167 33.1177 40.0563 32.4094C40.4458 32.3385 40.8443 32.2943 41.2516 32.2766C41.6589 32.2589 42.075 32.25 42.5 32.25C45.05 32.25 47.1042 32.7193 48.6625 33.6578C50.2208 34.5964 51 35.8448 51 37.4031V40.75H41.4375ZM25.5 33.8438C23.4813 33.8438 21.675 34.1094 20.0813 34.6406C18.4875 35.1719 17.549 35.7917 17.2656 36.5H33.7875C33.4688 35.7917 32.5214 35.1719 30.9453 34.6406C29.3693 34.1094 27.5542 33.8438 25.5 33.8438ZM8.5 30.125C7.33125 30.125 6.33073 29.7089 5.49844 28.8766C4.66615 28.0443 4.25 27.0438 4.25 25.875C4.25 24.6708 4.66615 23.6615 5.49844 22.8469C6.33073 22.0323 7.33125 21.625 8.5 21.625C9.70417 21.625 10.7135 22.0323 11.5281 22.8469C12.3427 23.6615 12.75 24.6708 12.75 25.875C12.75 27.0438 12.3427 28.0443 11.5281 28.8766C10.7135 29.7089 9.70417 30.125 8.5 30.125ZM42.5 30.125C41.3313 30.125 40.3307 29.7089 39.4984 28.8766C38.6661 28.0443 38.25 27.0438 38.25 25.875C38.25 24.6708 38.6661 23.6615 39.4984 22.8469C40.3307 22.0323 41.3313 21.625 42.5 21.625C43.7042 21.625 44.7135 22.0323 45.5281 22.8469C46.3427 23.6615 46.75 24.6708 46.75 25.875C46.75 27.0438 46.3427 28.0443 45.5281 28.8766C44.7135 29.7089 43.7042 30.125 42.5 30.125ZM25.5 28C23.7292 28 22.224 27.3802 20.9844 26.1406C19.7448 24.901 19.125 23.3958 19.125 21.625C19.125 19.8188 19.7448 18.3047 20.9844 17.0828C22.224 15.8609 23.7292 15.25 25.5 15.25C27.3063 15.25 28.8203 15.8609 30.0422 17.0828C31.2641 18.3047 31.875 19.8188 31.875 21.625C31.875 23.3958 31.2641 24.901 30.0422 26.1406C28.8203 27.3802 27.3063 28 25.5 28ZM25.5 19.5C24.8979 19.5 24.3932 19.7036 23.9859 20.1109C23.5786 20.5182 23.375 21.0229 23.375 21.625C23.375 22.2271 23.5786 22.7318 23.9859 23.1391C24.3932 23.5464 24.8979 23.75 25.5 23.75C26.1021 23.75 26.6068 23.5464 27.0141 23.1391C27.4214 22.7318 27.625 22.2271 27.625 21.625C27.625 21.0229 27.4214 20.5182 27.0141 20.1109C26.6068 19.7036 26.1021 19.5 25.5 19.5Z" fill="#D22828"/>
</svg>
