<svg width="43" height="40" viewBox="0 0 43 40" fill="none" xmlns="http://www.w3.org/2000/svg">
<path d="M21.5 39.625L18.4188 36.8625C14.8417 33.6396 11.8844 30.8594 9.54688 28.5219C7.20938 26.1844 5.35 24.0859 3.96875 22.2265C2.5875 20.3672 1.6224 18.6583 1.07344 17.1C0.524479 15.5416 0.25 13.9479 0.25 12.3187C0.25 8.98956 1.36563 6.20935 3.59688 3.9781C5.82813 1.74685 8.60833 0.631226 11.9375 0.631226C13.7792 0.631226 15.5323 1.02081 17.1969 1.79998C18.8615 2.57914 20.2958 3.67706 21.5 5.09373C22.7042 3.67706 24.1385 2.57914 25.8031 1.79998C27.4677 1.02081 29.2208 0.631226 31.0625 0.631226C34.3917 0.631226 37.1719 1.74685 39.4031 3.9781C41.6344 6.20935 42.75 8.98956 42.75 12.3187C42.75 13.9479 42.4755 15.5416 41.9266 17.1C41.3776 18.6583 40.4125 20.3672 39.0313 22.2265C37.65 24.0859 35.7906 26.1844 33.4531 28.5219C31.1156 30.8594 28.1583 33.6396 24.5813 36.8625L21.5 39.625ZM21.5 33.8875C24.9 30.8416 27.6979 28.2297 29.8938 26.0515C32.0896 23.8734 33.825 21.9786 35.1 20.3672C36.375 18.7557 37.2604 17.3213 37.7563 16.064C38.2521 14.8067 38.5 13.5583 38.5 12.3187C38.5 10.1937 37.7917 8.42289 36.375 7.00623C34.9583 5.58956 33.1875 4.88123 31.0625 4.88123C29.3979 4.88123 27.8573 5.3505 26.4406 6.28904C25.024 7.22758 24.05 8.42289 23.5188 9.87498H19.4813C18.95 8.42289 17.976 7.22758 16.5594 6.28904C15.1427 5.3505 13.6021 4.88123 11.9375 4.88123C9.8125 4.88123 8.04167 5.58956 6.625 7.00623C5.20833 8.42289 4.5 10.1937 4.5 12.3187C4.5 13.5583 4.74792 14.8067 5.24375 16.064C5.73958 17.3213 6.625 18.7557 7.9 20.3672C9.175 21.9786 10.9104 23.8734 13.1063 26.0515C15.3021 28.2297 18.1 30.8416 21.5 33.8875Z" fill="#D22828"/>
</svg>
