<svg width="55" height="15" viewBox="0 0 55 15" fill="none" xmlns="http://www.w3.org/2000/svg">
<g clip-path="url(#clip0_41_352)">
<path d="M0 0.00244101H5.15986C5.62893 0.00244101 7.03617 -0.153784 7.66161 2.03336C8.13068 3.43938 8.75612 5.62653 9.69428 8.90724H10.007C10.9452 5.4703 11.7269 3.12693 12.0397 2.03336C12.6651 -0.153784 14.2287 0.00244101 14.8541 0.00244101H19.7013V15H14.6978V6.0952H14.3851L11.7269 15H7.97432L5.31622 6.0952H4.84714V15H0M21.7339 0.00244101H26.7374V8.90724H27.2065L30.4901 1.56469C31.1155 0.158666 32.5227 0.00244101 32.5227 0.00244101H37.2135V15H32.21V6.0952H31.8973L28.6138 13.4378C27.9883 14.8438 26.4247 15 26.4247 15H21.7339M43.937 10.4695V15H39.2462V7.18877H54.5694C53.944 9.06347 51.7549 10.4695 49.2532 10.4695" fill="#282929"/>
<path d="M54.8783 6.25289C55.5038 3.44085 53.6275 0.00390625 49.5621 0.00390625H38.9297C39.2424 3.28462 42.0569 6.25289 45.0277 6.25289" fill="#282929"/>
</g>
<defs>
<clipPath id="clip0_41_352">
<rect width="55" height="15" fill="white"/>
</clipPath>
</defs>
</svg>
