<svg width="47" height="33" viewBox="0 0 47 33" fill="none" xmlns="http://www.w3.org/2000/svg">
<path d="M23.5 26C26.1563 26 28.4141 25.0703 30.2734 23.2109C32.1328 21.3516 33.0625 19.0938 33.0625 16.4375C33.0625 13.7813 32.1328 11.5234 30.2734 9.66406C28.4141 7.80469 26.1563 6.875 23.5 6.875C20.8438 6.875 18.5859 7.80469 16.7266 9.66406C14.8672 11.5234 13.9375 13.7813 13.9375 16.4375C13.9375 19.0938 14.8672 21.3516 16.7266 23.2109C18.5859 25.0703 20.8438 26 23.5 26ZM23.5 22.175C21.9063 22.175 20.5516 21.6172 19.4359 20.5016C18.3203 19.3859 17.7625 18.0313 17.7625 16.4375C17.7625 14.8438 18.3203 13.4891 19.4359 12.3734C20.5516 11.2578 21.9063 10.7 23.5 10.7C25.0938 10.7 26.4484 11.2578 27.5641 12.3734C28.6797 13.4891 29.2375 14.8438 29.2375 16.4375C29.2375 18.0313 28.6797 19.3859 27.5641 20.5016C26.4484 21.6172 25.0938 22.175 23.5 22.175ZM23.5 32.375C18.3292 32.375 13.6188 30.9318 9.36875 28.0453C5.11875 25.1589 2.0375 21.2896 0.125 16.4375C2.0375 11.5854 5.11875 7.71615 9.36875 4.82969C13.6188 1.94323 18.3292 0.5 23.5 0.5C28.6708 0.5 33.3813 1.94323 37.6313 4.82969C41.8813 7.71615 44.9625 11.5854 46.875 16.4375C44.9625 21.2896 41.8813 25.1589 37.6313 28.0453C33.3813 30.9318 28.6708 32.375 23.5 32.375ZM23.5 28.125C27.5021 28.125 31.1766 27.0714 34.5234 24.9641C37.8703 22.8568 40.4292 20.0146 42.2 16.4375C40.4292 12.8604 37.8703 10.0182 34.5234 7.91094C31.1766 5.80365 27.5021 4.75 23.5 4.75C19.4979 4.75 15.8234 5.80365 12.4766 7.91094C9.12969 10.0182 6.57083 12.8604 4.8 16.4375C6.57083 20.0146 9.12969 22.8568 12.4766 24.9641C15.8234 27.0714 19.4979 28.125 23.5 28.125Z" fill="#D22828"/>
</svg>
