<svg width="28" height="28" viewBox="0 0 28 28" fill="none" xmlns="http://www.w3.org/2000/svg">
<path d="M4.66669 10.5C4.33613 10.5 4.05905 10.3882 3.83544 10.1646C3.61183 9.94097 3.50002 9.66389 3.50002 9.33333C3.50002 9.00277 3.61183 8.72569 3.83544 8.50208C4.05905 8.27847 4.33613 8.16666 4.66669 8.16666H8.16669C8.80835 8.16666 9.35766 8.39514 9.8146 8.85208C10.2715 9.30902 10.5 9.85833 10.5 10.5H4.66669ZM7.00002 21C7.97224 21 8.79863 20.6597 9.47919 19.9792C10.1597 19.2986 10.5 18.4722 10.5 17.5C10.5 16.5278 10.1597 15.7014 9.47919 15.0208C8.79863 14.3403 7.97224 14 7.00002 14C6.0278 14 5.20141 14.3403 4.52085 15.0208C3.8403 15.7014 3.50002 16.5278 3.50002 17.5C3.50002 18.4722 3.8403 19.2986 4.52085 19.9792C5.20141 20.6597 6.0278 21 7.00002 21ZM22.75 21C23.2361 21 23.6493 20.8299 23.9896 20.4896C24.3299 20.1493 24.5 19.7361 24.5 19.25C24.5 18.7639 24.3299 18.3507 23.9896 18.0104C23.6493 17.6701 23.2361 17.5 22.75 17.5C22.2639 17.5 21.8507 17.6701 21.5104 18.0104C21.1702 18.3507 21 18.7639 21 19.25C21 19.7361 21.1702 20.1493 21.5104 20.4896C21.8507 20.8299 22.2639 21 22.75 21ZM7.00002 19.25C6.51391 19.25 6.10072 19.0799 5.76044 18.7396C5.42016 18.3993 5.25002 17.9861 5.25002 17.5C5.25002 17.0139 5.42016 16.6007 5.76044 16.2604C6.10072 15.9201 6.51391 15.75 7.00002 15.75C7.48613 15.75 7.89933 15.9201 8.2396 16.2604C8.57988 16.6007 8.75002 17.0139 8.75002 17.5C8.75002 17.9861 8.57988 18.3993 8.2396 18.7396C7.89933 19.0799 7.48613 19.25 7.00002 19.25ZM23.3334 15.1958C23.8389 15.2931 24.257 15.4243 24.5875 15.5896C24.9181 15.7549 25.2778 16.0222 25.6667 16.3917V9.33333C25.6667 8.69166 25.4382 8.14236 24.9813 7.68541C24.5243 7.22847 23.975 7 23.3334 7H15.9834L14.7584 5.71666L16.3917 4.08333L15.575 3.26666L11.4334 7.40833L12.3084 8.225L13.9417 6.59166L15.1667 7.81666V10.5C15.1667 11.1417 14.9382 11.691 14.4813 12.1479C14.0243 12.6049 13.475 12.8333 12.8334 12.8333H10.4709C10.9181 13.1639 11.2778 13.5042 11.55 13.8542C11.8222 14.2042 12.0945 14.6417 12.3667 15.1667H12.8334C14.1167 15.1667 15.2153 14.7097 16.1292 13.7958C17.0431 12.8819 17.5 11.7833 17.5 10.5V9.33333H23.3334V15.1958ZM18.6959 18.6667C18.8125 18.1417 18.9535 17.7187 19.1188 17.3979C19.284 17.0771 19.5417 16.7222 19.8917 16.3333H12.7167C12.7945 16.7806 12.8334 17.1694 12.8334 17.5C12.8334 17.8306 12.7945 18.2194 12.7167 18.6667H18.6959ZM22.75 23.3333C21.6222 23.3333 20.6597 22.9347 19.8625 22.1375C19.0653 21.3403 18.6667 20.3778 18.6667 19.25C18.6667 18.1222 19.0653 17.1597 19.8625 16.3625C20.6597 15.5653 21.6222 15.1667 22.75 15.1667C23.8778 15.1667 24.8403 15.5653 25.6375 16.3625C26.4347 17.1597 26.8334 18.1222 26.8334 19.25C26.8334 20.3778 26.4347 21.3403 25.6375 22.1375C24.8403 22.9347 23.8778 23.3333 22.75 23.3333ZM7.00002 23.3333C5.38613 23.3333 4.01044 22.7646 2.87294 21.6271C1.73544 20.4896 1.16669 19.1139 1.16669 17.5C1.16669 15.8861 1.73544 14.5104 2.87294 13.3729C4.01044 12.2354 5.38613 11.6667 7.00002 11.6667C8.61391 11.6667 9.9896 12.2354 11.1271 13.3729C12.2646 14.5104 12.8334 15.8861 12.8334 17.5C12.8334 19.1139 12.2646 20.4896 11.1271 21.6271C9.9896 22.7646 8.61391 23.3333 7.00002 23.3333Z" fill="white"/>
</svg>
