<svg width="28" height="28" viewBox="0 0 28 28" fill="none" xmlns="http://www.w3.org/2000/svg">
<path d="M25.6666 7.00002V21C25.6666 21.6417 25.4382 22.191 24.9812 22.6479C24.5243 23.1049 23.975 23.3334 23.3333 23.3334H4.66665C4.02498 23.3334 3.47567 23.1049 3.01873 22.6479C2.56179 22.191 2.33331 21.6417 2.33331 21V7.00002C2.33331 6.35835 2.56179 5.80905 3.01873 5.3521C3.47567 4.89516 4.02498 4.66669 4.66665 4.66669H23.3333C23.975 4.66669 24.5243 4.89516 24.9812 5.3521C25.4382 5.80905 25.6666 6.35835 25.6666 7.00002ZM4.66665 9.33335H23.3333V7.00002H4.66665V9.33335ZM4.66665 14V21H23.3333V14H4.66665Z" fill="white"/>
</svg>
