<svg width="28" height="28" viewBox="0 0 28 28" fill="none" xmlns="http://www.w3.org/2000/svg">
<path d="M14.9183 12.5093C14.9183 12.2401 14.9989 11.9769 15.15 11.7531C15.3011 11.5293 15.5159 11.3548 15.7672 11.2518C16.0184 11.1488 16.2949 11.1218 16.5617 11.1743C16.8285 11.2268 17.0735 11.3565 17.2658 11.5468C17.4581 11.7372 17.5891 11.9797 17.6422 12.2437C17.6952 12.5078 17.668 12.7814 17.5639 13.0302C17.4598 13.2789 17.2836 13.4914 17.0574 13.641C16.8313 13.7906 16.5654 13.8704 16.2934 13.8704C15.9287 13.8704 15.5789 13.727 15.321 13.4717C15.0631 13.2165 14.9183 12.8703 14.9183 12.5093ZM24.9798 9.03618C24.8211 11.3307 23.7891 13.4802 22.0919 15.051C20.3947 16.6219 18.1587 17.4971 15.835 17.5H12.1679C11.8032 17.5 11.4534 17.6434 11.1956 17.8987C10.9377 18.1539 10.7928 18.5001 10.7928 18.8611C10.7928 19.2221 10.9377 19.5683 11.1956 19.8236C11.4534 20.0788 11.8032 20.2222 12.1679 20.2222H18.5854C18.8285 20.2222 19.0617 20.3178 19.2336 20.488C19.4055 20.6582 19.5021 20.889 19.5021 21.1296C19.5021 21.3703 19.4055 21.6011 19.2336 21.7713C19.0617 21.9415 18.8285 22.0371 18.5854 22.0371H13.0847V23.8519H16.7518C16.995 23.8519 17.2281 23.9475 17.4001 24.1176C17.572 24.2878 17.6686 24.5186 17.6686 24.7593C17.6686 24.9999 17.572 25.2307 17.4001 25.4009C17.2281 25.5711 16.995 25.6667 16.7518 25.6667H10.3344C7.90296 25.6667 5.57111 24.7107 3.85183 23.009C2.13255 21.3072 1.16666 18.9992 1.16666 16.5926C1.16666 14.186 2.13255 11.878 3.85183 10.1763C5.57111 8.47455 7.90296 7.51854 10.3344 7.51854H23.6276C23.9923 7.51854 24.3421 7.37514 24.6 7.11988C24.8579 6.86462 25.0028 6.51842 25.0028 6.15743C25.0028 5.79644 24.8579 5.45023 24.6 5.19498C24.3421 4.93972 23.9923 4.79632 23.6276 4.79632H14.0015C13.2721 4.79632 12.5725 4.50951 12.0567 3.999C11.5409 3.48848 11.2512 2.79607 11.2512 2.07409C11.2512 1.83343 11.3478 1.60263 11.5197 1.43246C11.6916 1.26229 11.9248 1.16669 12.1679 1.16669C12.4111 1.16669 12.6443 1.26229 12.8162 1.43246C12.9881 1.60263 13.0847 1.83343 13.0847 2.07409C13.0847 2.31475 13.1813 2.54556 13.3532 2.71573C13.5252 2.8859 13.7583 2.9815 14.0015 2.9815H23.6276C24.3578 2.98217 25.0659 3.22931 25.635 3.6821C26.204 4.13489 26.6001 4.76625 26.7577 5.47192C26.9153 6.17758 26.825 6.91535 26.5018 7.56338C26.1786 8.21141 25.6417 8.73094 24.9798 9.03618ZM5.15463 21.7297L8.96153 19.0381V18.8611C8.96087 18.5745 8.99942 18.2891 9.07612 18.0127L3.11481 15.3302C2.90749 16.481 2.98519 17.6644 3.34126 18.779C3.69732 19.8935 4.32113 20.906 5.15921 21.7297H5.15463ZM9.6239 20.7996L6.68105 22.8832C7.7915 23.5187 9.05171 23.8528 10.3344 23.8519H11.2512V21.9043C10.6071 21.7127 10.0397 21.3264 9.62848 20.7996H9.6239ZM11.2512 15.8179V9.33335H10.3344C8.92771 9.33491 7.55109 9.73641 6.36831 10.4901C5.18553 11.2437 4.24637 12.3178 3.66258 13.5846L10.0651 16.4644C10.4095 16.1679 10.8138 15.9475 11.2512 15.8179ZM23.1119 9.33335H13.0847V15.6852H15.835C17.6208 15.6831 19.3447 15.037 20.684 13.8679C22.0234 12.6988 22.8865 11.0868 23.1119 9.33335Z" fill="white"/>
</svg>
