<svg width="28" height="28" viewBox="0 0 28 28" fill="none" xmlns="http://www.w3.org/2000/svg">
<path d="M10.5 16.3333H12.8333V10.5H10.5V16.3333ZM5.83334 14.5833C4.93889 14.1361 4.22917 13.4896 3.70417 12.6437C3.17917 11.7979 2.91667 10.8791 2.91667 9.88748C2.91667 8.42915 3.41737 7.19442 4.41876 6.18331C5.42014 5.1722 6.65001 4.66665 8.10834 4.66665C8.34167 4.66665 8.57987 4.68609 8.82292 4.72498C9.06598 4.76387 9.30417 4.81248 9.53751 4.87081C10.0236 4.07359 10.6556 3.45137 11.4333 3.00415C12.2111 2.55692 13.0667 2.33331 14 2.33331C14.9333 2.33331 15.7889 2.55692 16.5667 3.00415C17.3445 3.45137 17.9764 4.07359 18.4625 4.87081C18.6958 4.81248 18.9292 4.76387 19.1625 4.72498C19.3958 4.68609 19.6389 4.66665 19.8917 4.66665C21.35 4.66665 22.5799 5.1722 23.5813 6.18331C24.5826 7.19442 25.0833 8.42915 25.0833 9.88748C25.0833 10.8791 24.8208 11.7979 24.2958 12.6437C23.7708 13.4896 23.0611 14.1361 22.1667 14.5833V21H5.83334V14.5833ZM15.1667 16.3333H17.5V10.5H15.1667V16.3333ZM8.16667 18.6666H19.8333V13.1541L21.1167 12.5125C21.6222 12.2597 22.0208 11.9048 22.3125 11.4479C22.6042 10.991 22.75 10.4805 22.75 9.91665C22.75 9.09998 22.4729 8.4097 21.9188 7.84581C21.3646 7.28192 20.6889 6.99998 19.8917 6.99998C19.6778 6.99998 19.4833 7.01942 19.3083 7.05831C19.1333 7.0972 18.9486 7.14581 18.7542 7.20415L17.3833 7.58331L16.4792 6.06665C16.207 5.61942 15.8521 5.27429 15.4146 5.03123C14.9771 4.78817 14.5056 4.66665 14 4.66665C13.4945 4.66665 13.0229 4.78817 12.5854 5.03123C12.1479 5.27429 11.7931 5.61942 11.5208 6.06665L10.6167 7.58331L9.21667 7.20415C9.02223 7.16526 8.83264 7.12151 8.64792 7.0729C8.4632 7.02428 8.27362 6.99998 8.07917 6.99998C7.28195 6.99998 6.61112 7.28192 6.06667 7.84581C5.52223 8.4097 5.25001 9.09998 5.25001 9.91665C5.25001 10.4805 5.39584 10.991 5.68751 11.4479C5.97917 11.9048 6.37778 12.2597 6.88334 12.5125L8.16667 13.1541V18.6666ZM5.83334 21H8.16667V23.3333H19.8333V21H22.1667V25.6666H5.83334V21Z" fill="white"/>
</svg>
