<svg width="22" height="20" viewBox="0 0 22 20" fill="none" xmlns="http://www.w3.org/2000/svg">
<path fill-rule="evenodd" clip-rule="evenodd" d="M18.8866 1.12314C19.1312 1.01411 19.3989 0.9765 19.6619 1.01424C19.9249 1.05198 20.1735 1.16368 20.3819 1.33772C20.5903 1.51177 20.7509 1.74178 20.8469 2.00384C20.9428 2.26589 20.9707 2.5504 20.9277 2.82775L18.6827 17.2498C18.4649 18.6409 17.0237 19.4387 15.8191 18.7458C14.8114 18.166 13.3147 17.2728 11.9685 16.3409C11.2954 15.8744 9.2336 14.3805 9.487 13.3175C9.70476 12.4085 13.1692 8.99305 15.1489 6.96241C15.926 6.16462 15.5716 5.7044 14.654 6.43824C12.3754 8.26025 8.71689 11.031 7.5073 11.811C6.44024 12.4987 5.88395 12.6161 5.21877 12.4987C4.00522 12.2848 2.87976 11.9536 1.96118 11.55C0.719912 11.0048 0.780293 9.19747 1.96019 8.6712L18.8866 1.12314Z" stroke="#282929" stroke-width="2"/>
</svg>
