<svg width="18" height="18" viewBox="0 0 18 18" fill="none" xmlns="http://www.w3.org/2000/svg">
<path d="M8.95866 14C9.25033 14 9.49685 13.8993 9.69824 13.6979C9.89963 13.4965 10.0003 13.25 10.0003 12.9584C10.0003 12.6667 9.89963 12.4202 9.69824 12.2188C9.49685 12.0174 9.25033 11.9167 8.95866 11.9167C8.66699 11.9167 8.42046 12.0174 8.21908 12.2188C8.01769 12.4202 7.91699 12.6667 7.91699 12.9584C7.91699 13.25 8.01769 13.4965 8.21908 13.6979C8.42046 13.8993 8.66699 14 8.95866 14ZM8.20866 10.7917H9.75033C9.75033 10.3334 9.80241 9.97224 9.90658 9.70835C10.0107 9.44446 10.3059 9.08335 10.792 8.62502C11.1531 8.26391 11.4378 7.92016 11.6462 7.59377C11.8545 7.26738 11.9587 6.87502 11.9587 6.41669C11.9587 5.63891 11.6739 5.04169 11.1045 4.62502C10.535 4.20835 9.86144 4.00002 9.08366 4.00002C8.29199 4.00002 7.64963 4.20835 7.15658 4.62502C6.66352 5.04169 6.31977 5.54169 6.12533 6.12502L7.50033 6.66669C7.56977 6.41669 7.72602 6.14585 7.96908 5.85419C8.21213 5.56252 8.58366 5.41669 9.08366 5.41669C9.5281 5.41669 9.86144 5.53821 10.0837 5.78127C10.3059 6.02433 10.417 6.29169 10.417 6.58335C10.417 6.86113 10.3337 7.12155 10.167 7.3646C10.0003 7.60766 9.79199 7.83335 9.54199 8.04169C8.93088 8.58335 8.55588 8.99308 8.41699 9.27085C8.2781 9.54863 8.20866 10.0556 8.20866 10.7917ZM9.00033 17.3334C7.84755 17.3334 6.76421 17.1146 5.75033 16.6771C4.73644 16.2396 3.85449 15.6459 3.10449 14.8959C2.35449 14.1459 1.76074 13.2639 1.32324 12.25C0.885742 11.2361 0.666992 10.1528 0.666992 9.00002C0.666992 7.84724 0.885742 6.76391 1.32324 5.75002C1.76074 4.73613 2.35449 3.85419 3.10449 3.10419C3.85449 2.35419 4.73644 1.76044 5.75033 1.32294C6.76421 0.885437 7.84755 0.666687 9.00033 0.666687C10.1531 0.666687 11.2364 0.885437 12.2503 1.32294C13.2642 1.76044 14.1462 2.35419 14.8962 3.10419C15.6462 3.85419 16.2399 4.73613 16.6774 5.75002C17.1149 6.76391 17.3337 7.84724 17.3337 9.00002C17.3337 10.1528 17.1149 11.2361 16.6774 12.25C16.2399 13.2639 15.6462 14.1459 14.8962 14.8959C14.1462 15.6459 13.2642 16.2396 12.2503 16.6771C11.2364 17.1146 10.1531 17.3334 9.00033 17.3334ZM9.00033 15.6667C10.8614 15.6667 12.4378 15.0209 13.7295 13.7292C15.0212 12.4375 15.667 10.8611 15.667 9.00002C15.667 7.13891 15.0212 5.56252 13.7295 4.27085C12.4378 2.97919 10.8614 2.33335 9.00033 2.33335C7.13921 2.33335 5.56283 2.97919 4.27116 4.27085C2.97949 5.56252 2.33366 7.13891 2.33366 9.00002C2.33366 10.8611 2.97949 12.4375 4.27116 13.7292C5.56283 15.0209 7.13921 15.6667 9.00033 15.6667Z" fill="#282929"/>
</svg>
