<svg width="28" height="19" viewBox="0 0 28 19" fill="none" xmlns="http://www.w3.org/2000/svg">
<path d="M16.6 8.08208V3.15412C16.6 2.04347 16.4037 1.8208 15.326 1.8208L12.271 1.75013C11.3194 1.75013 10.8436 1.75013 10.6512 2.06613C10.4588 2.38213 10.672 2.81546 11.0971 3.67945C11.3337 4.15945 11.4611 4.50744 11.4611 5.04611V8.59274C11.4611 9.71273 11.4611 10.2741 11.0451 10.4407C10.6291 10.6061 10.2846 10.2301 9.59299 9.47807C7.903 7.63275 7.02161 5.32877 6.44311 2.81679C6.32351 2.2968 6.26371 2.0368 6.08431 1.8928C5.90491 1.7488 5.64881 1.75013 5.13922 1.75013H2.27923C1.65264 1.75013 1.33934 1.75013 1.14304 1.9768C0.948042 2.2048 0.985741 2.49546 1.06114 3.07546C1.74754 8.31141 6.23641 16.8967 14.5291 17.7153C15.9981 17.8593 16.6 17.4527 16.6 15.802C16.6 14.866 16.5805 13.354 17.7283 13.1554C18.3302 13.0514 18.7345 13.2714 19.4066 13.8487C20.5714 14.8514 21.1824 16.0753 21.6075 17.0047C21.8896 17.6207 22.0989 17.75 22.7619 17.75H25.4581C26.8205 17.75 27.191 17.4087 26.5839 16.0967C25.8978 14.6253 24.9264 13.3128 23.7291 12.2394C22.9023 11.5101 22.4902 11.1461 22.4681 10.8767C22.4434 10.6087 22.7463 10.2287 23.3521 9.46874C24.5221 7.99941 26.1159 5.6941 26.8595 3.24746C27.2287 2.03413 26.8816 1.75013 25.6843 1.75013H23.2624C22.0885 1.75013 22.0898 1.7088 21.8129 3.07412C21.3631 5.28877 19.8915 7.41809 18.5083 8.86741C17.8518 9.5554 17.4553 9.97007 17.0458 9.80073C16.6364 9.6314 16.6 9.11674 16.6 8.08208Z" stroke="#D22828" stroke-width="2" stroke-linecap="round" stroke-linejoin="round"/>
</svg>
