<svg width="20" height="20" viewBox="0 0 20 20" fill="none" xmlns="http://www.w3.org/2000/svg">
<path d="M17.05 2.91005C16.1331 1.98415 15.041 1.25002 13.8375 0.750414C12.634 0.250812 11.3431 -0.00426316 10.04 5.3895e-05C4.58004 5.3895e-05 0.130049 4.45004 0.130049 9.91003C0.130049 11.66 0.590047 13.36 1.45005 14.86L0.0500488 20L5.30003 18.62C6.75003 19.41 8.38003 19.83 10.04 19.83C15.5 19.83 19.95 15.38 19.95 9.92003C19.95 7.27003 18.92 4.78004 17.05 2.91005ZM10.04 18.15C8.56003 18.15 7.11003 17.75 5.84003 17L5.54003 16.82L2.42004 17.64L3.25004 14.6L3.05004 14.29C2.22759 12.9771 1.79097 11.4593 1.79004 9.91003C1.79004 5.37004 5.49003 1.67005 10.03 1.67005C12.23 1.67005 14.3 2.53005 15.85 4.09004C16.6176 4.8539 17.2259 5.76258 17.6396 6.76336C18.0533 7.76415 18.2642 8.83712 18.26 9.92003C18.28 14.46 14.58 18.15 10.04 18.15ZM14.56 11.99C14.31 11.87 13.09 11.27 12.87 11.18C12.64 11.1 12.48 11.06 12.31 11.3C12.14 11.55 11.67 12.11 11.53 12.27C11.39 12.44 11.24 12.46 10.99 12.33C10.74 12.21 9.94002 11.94 9.00002 11.1C8.26003 10.44 7.77003 9.63003 7.62003 9.38003C7.48003 9.13003 7.60003 9.00003 7.73003 8.87003C7.84003 8.76003 7.98003 8.58003 8.10003 8.44003C8.22003 8.30003 8.27003 8.19003 8.35003 8.03003C8.43003 7.86003 8.39003 7.72003 8.33003 7.60003C8.27003 7.48003 7.77003 6.26004 7.57003 5.76004C7.37003 5.28004 7.16003 5.34004 7.01003 5.33004H6.53003C6.36003 5.33004 6.10003 5.39004 5.87003 5.64004C5.65003 5.89004 5.01004 6.49004 5.01004 7.71003C5.01004 8.93003 5.90003 10.11 6.02003 10.27C6.14003 10.44 7.77003 12.94 10.25 14.01C10.84 14.27 11.3 14.42 11.66 14.53C12.25 14.72 12.79 14.69 13.22 14.63C13.7 14.56 14.69 14.03 14.89 13.45C15.1 12.87 15.1 12.38 15.03 12.27C14.96 12.16 14.81 12.11 14.56 11.99Z" fill="#282929"/>
</svg>
