<svg width="22" height="18" viewBox="0 0 22 18" fill="none" xmlns="http://www.w3.org/2000/svg">
<path d="M2.425 7.5C2.65833 6.9 2.69583 6.36667 2.5375 5.9C2.37917 5.43333 2.10833 4.96667 1.725 4.5C1.175 3.83333 0.8125 3.20417 0.6375 2.6125C0.4625 2.02083 0.433333 1.31667 0.55 0.5H2.5C2.36667 1.13333 2.34583 1.65 2.4375 2.05C2.52917 2.45 2.76667 2.88333 3.15 3.35C3.78333 4.11667 4.1875 4.79583 4.3625 5.3875C4.5375 5.97917 4.54167 6.68333 4.375 7.5H2.425ZM6.425 7.5C6.65833 6.9 6.7 6.36667 6.55 5.9C6.4 5.43333 6.13333 4.96667 5.75 4.5C5.2 3.83333 4.83333 3.20417 4.65 2.6125C4.46667 2.02083 4.43333 1.31667 4.55 0.5H6.5C6.36667 1.13333 6.34583 1.65 6.4375 2.05C6.52917 2.45 6.76667 2.88333 7.15 3.35C7.78333 4.11667 8.1875 4.79583 8.3625 5.3875C8.5375 5.97917 8.54167 6.68333 8.375 7.5H6.425ZM10.425 7.5C10.6583 6.9 10.7 6.36667 10.55 5.9C10.4 5.43333 10.1333 4.96667 9.75 4.5C9.2 3.83333 8.83333 3.20417 8.65 2.6125C8.46667 2.02083 8.43333 1.31667 8.55 0.5H10.5C10.3667 1.13333 10.3458 1.65 10.4375 2.05C10.5292 2.45 10.7667 2.88333 11.15 3.35C11.7833 4.11667 12.1875 4.79583 12.3625 5.3875C12.5375 5.97917 12.5417 6.68333 12.375 7.5H10.425ZM3 17.5C2.16667 17.5 1.45833 17.2083 0.875 16.625C0.291667 16.0417 0 15.3333 0 14.5V9.5H14.025C14.1083 8.93333 14.3333 8.4375 14.7 8.0125C15.0667 7.5875 15.5167 7.28333 16.05 7.1L20.675 5.55L21.3 7.45L16.675 9C16.475 9.06667 16.3125 9.1875 16.1875 9.3625C16.0625 9.5375 16 9.73333 16 9.95V14.5C16 15.3333 15.7083 16.0417 15.125 16.625C14.5417 17.2083 13.8333 17.5 13 17.5H3ZM3 15.5H13C13.2833 15.5 13.5208 15.4042 13.7125 15.2125C13.9042 15.0208 14 14.7833 14 14.5V11.5H2V14.5C2 14.7833 2.09583 15.0208 2.2875 15.2125C2.47917 15.4042 2.71667 15.5 3 15.5Z" fill="#D22828"/>
</svg>
