<svg xmlns="http://www.w3.org/2000/svg" xmlns:xlink="http://www.w3.org/1999/xlink"><defs>
<clipPath id="clip0_69_915">
<rect width="505.144" height="505.144" fill="white" transform="translate(47.4282) rotate(42.3706)"/>
</clipPath>

<clipPath id="clip0_41_352">
<rect width="55" height="15" fill="white"/>
</clipPath>

<clipPath id="clip0_175_8167">
<rect width="351.352" height="351.352" fill="white" transform="translate(23.7852) rotate(42.3706)"/>
</clipPath>

<clipPath id="clip0_2247_1694">
<rect width="20" height="20" fill="white"/>
</clipPath>

<clipPath id="clip0_41_355">
<rect width="25" height="15" fill="white"/>
</clipPath>
</defs><symbol id="alive" viewBox="0 0 16 19">
<path d="M8 19C5.78333 19 3.89583 18.2333 2.3375 16.7C0.779167 15.1667 0 13.3 0 11.1C0 10.05 0.204167 9.04583 0.6125 8.0875C1.02083 7.12917 1.6 6.28333 2.35 5.55L8 0L13.65 5.55C14.4 6.28333 14.9792 7.12917 15.3875 8.0875C15.7958 9.04583 16 10.05 16 11.1C16 13.3 15.2208 15.1667 13.6625 16.7C12.1042 18.2333 10.2167 19 8 19ZM2 11.1H14C14 10.3167 13.85 9.57083 13.55 8.8625C13.25 8.15417 12.8167 7.53333 12.25 7L8 2.8L3.75 7C3.18333 7.53333 2.75 8.15417 2.45 8.8625C2.15 9.57083 2 10.3167 2 11.1Z"/>
</symbol><symbol id="annotation" viewBox="0 0 20 20">
<path d="M10 15C10.2833 15 10.5208 14.9042 10.7125 14.7125C10.9042 14.5208 11 14.2833 11 14C11 13.7167 10.9042 13.4792 10.7125 13.2875C10.5208 13.0958 10.2833 13 10 13C9.71667 13 9.47917 13.0958 9.2875 13.2875C9.09583 13.4792 9 13.7167 9 14C9 14.2833 9.09583 14.5208 9.2875 14.7125C9.47917 14.9042 9.71667 15 10 15ZM9 11H11V5H9V11ZM10 20C8.61667 20 7.31667 19.7375 6.1 19.2125C4.88333 18.6875 3.825 17.975 2.925 17.075C2.025 16.175 1.3125 15.1167 0.7875 13.9C0.2625 12.6833 0 11.3833 0 10C0 8.61667 0.2625 7.31667 0.7875 6.1C1.3125 4.88333 2.025 3.825 2.925 2.925C3.825 2.025 4.88333 1.3125 6.1 0.7875C7.31667 0.2625 8.61667 0 10 0C11.3833 0 12.6833 0.2625 13.9 0.7875C15.1167 1.3125 16.175 2.025 17.075 2.925C17.975 3.825 18.6875 4.88333 19.2125 6.1C19.7375 7.31667 20 8.61667 20 10C20 11.3833 19.7375 12.6833 19.2125 13.9C18.6875 15.1167 17.975 16.175 17.075 17.075C16.175 17.975 15.1167 18.6875 13.9 19.2125C12.6833 19.7375 11.3833 20 10 20ZM10 18C12.2333 18 14.125 17.225 15.675 15.675C17.225 14.125 18 12.2333 18 10C18 7.76667 17.225 5.875 15.675 4.325C14.125 2.775 12.2333 2 10 2C7.76667 2 5.875 2.775 4.325 4.325C2.775 5.875 2 7.76667 2 10C2 12.2333 2.775 14.125 4.325 15.675C5.875 17.225 7.76667 18 10 18Z"/>
</symbol><symbol id="arrow-down" viewBox="0 0 14 8">
<path d="M13 1L7 7L1 1" stroke-width="2" stroke-linecap="round" stroke-linejoin="round"/>
</symbol><symbol id="arrow-left" viewBox="0 0 8 14">
<path d="M7 1L1 7L7 13" stroke-width="2" stroke-linecap="round" stroke-linejoin="round"/>
</symbol><symbol id="arrow-right" viewBox="0 0 8 14">
<path d="M1 1L7 7L1 13" stroke-width="2" stroke-linecap="round" stroke-linejoin="round"/>
</symbol><symbol id="boiling" viewBox="0 0 18 18">
<path d="M0 5.5H18V14.5C18 15.3333 17.7083 16.0417 17.125 16.625C16.5417 17.2083 15.8333 17.5 15 17.5H3C2.16667 17.5 1.45833 17.2083 0.875 16.625C0.291667 16.0417 0 15.3333 0 14.5V5.5ZM2 7.5V14.5C2 14.7833 2.09583 15.0208 2.2875 15.2125C2.47917 15.4042 2.71667 15.5 3 15.5H15C15.2833 15.5 15.5208 15.4042 15.7125 15.2125C15.9042 15.0208 16 14.7833 16 14.5V7.5H2ZM0 4.5V2.5H6V1.5C6 1.21667 6.09583 0.979167 6.2875 0.7875C6.47917 0.595833 6.71667 0.5 7 0.5H11C11.2833 0.5 11.5208 0.595833 11.7125 0.7875C11.9042 0.979167 12 1.21667 12 1.5V2.5H18V4.5H0Z"/>
</symbol><symbol id="busket" viewBox="0 0 22 19">
<path d="M4.52502 19C4.07503 19 3.67502 18.8625 3.32502 18.5875C2.97502 18.3125 2.73336 17.9583 2.60002 17.525L0.0500248 8.275C-0.0333085 7.95833 0.0208581 7.66667 0.212525 7.4C0.404191 7.13333 0.666691 7 1.00002 7H5.75002L10.15 0.45C10.2334 0.316667 10.35 0.208333 10.5 0.125C10.65 0.0416667 10.8084 0 10.975 0C11.1417 0 11.3 0.0416667 11.45 0.125C11.6 0.208333 11.7167 0.316667 11.8 0.45L16.2 7H21C21.3334 7 21.5959 7.13333 21.7875 7.4C21.9792 7.66667 22.0334 7.95833 21.95 8.275L19.4 17.525C19.2667 17.9583 19.025 18.3125 18.675 18.5875C18.325 18.8625 17.925 19 17.475 19H4.52502ZM4.50002 17H17.5L19.7 9H2.30002L4.50002 17ZM11 15C11.55 15 12.0209 14.8042 12.4125 14.4125C12.8042 14.0208 13 13.55 13 13C13 12.45 12.8042 11.9792 12.4125 11.5875C12.0209 11.1958 11.55 11 11 11C10.45 11 9.97919 11.1958 9.58752 11.5875C9.19586 11.9792 9.00002 12.45 9.00002 13C9.00002 13.55 9.19586 14.0208 9.58752 14.4125C9.97919 14.8042 10.45 15 11 15ZM8.17502 7H13.8L10.975 2.8L8.17502 7Z"/>
</symbol><symbol id="calendar" viewBox="0 0 18 20">
<path d="M16 20C16.55 20 17.0208 19.8042 17.4125 19.4125C17.8042 19.0208 18 18.55 18 18V4C18 3.45 17.8042 2.97917 17.4125 2.5875C17.0208 2.19583 16.55 2 16 2H15V0H13V2H5V0H3V2H2C1.45 2 0.979166 2.19583 0.5875 2.5875C0.195833 2.97917 0 3.45 0 4V18C0 18.55 0.195833 19.0208 0.5875 19.4125C0.979166 19.8042 1.45 20 2 20H16ZM16 18H2V8H16V18ZM16 6H2V4H16V6Z"/>
</symbol><symbol id="close-button" viewBox="0 0 14 14">
    <path d="M1.4 14L0 12.6L5.6 7L0 1.4L1.4 0L7 5.6L12.6 0L14 1.4L8.4 7L14 12.6L12.6 14L7 8.4L1.4 14Z"/>
</symbol><symbol id="delivery" viewBox="0 0 47 35">
<path d="M10.75 34.5C8.97917 34.5 7.47396 33.8802 6.23438 32.6406C4.99479 31.401 4.375 29.8958 4.375 28.125H0.125V4.75C0.125 3.58125 0.541146 2.58073 1.37344 1.74844C2.20573 0.916146 3.20625 0.5 4.375 0.5H34.125V9H40.5L46.875 17.5V28.125H42.625C42.625 29.8958 42.0052 31.401 40.7656 32.6406C39.526 33.8802 38.0208 34.5 36.25 34.5C34.4792 34.5 32.974 33.8802 31.7344 32.6406C30.4948 31.401 29.875 29.8958 29.875 28.125H17.125C17.125 29.8958 16.5052 31.401 15.2656 32.6406C14.026 33.8802 12.5208 34.5 10.75 34.5ZM10.75 30.25C11.3521 30.25 11.8568 30.0464 12.2641 29.6391C12.6714 29.2318 12.875 28.7271 12.875 28.125C12.875 27.5229 12.6714 27.0182 12.2641 26.6109C11.8568 26.2036 11.3521 26 10.75 26C10.1479 26 9.64323 26.2036 9.23594 26.6109C8.82865 27.0182 8.625 27.5229 8.625 28.125C8.625 28.7271 8.82865 29.2318 9.23594 29.6391C9.64323 30.0464 10.1479 30.25 10.75 30.25ZM4.375 23.875H6.075C6.67708 23.2375 7.36771 22.724 8.14688 22.3344C8.92604 21.9448 9.79375 21.75 10.75 21.75C11.7063 21.75 12.574 21.9448 13.3531 22.3344C14.1323 22.724 14.8229 23.2375 15.425 23.875H29.875V4.75H4.375V23.875ZM36.25 30.25C36.8521 30.25 37.3568 30.0464 37.7641 29.6391C38.1714 29.2318 38.375 28.7271 38.375 28.125C38.375 27.5229 38.1714 27.0182 37.7641 26.6109C37.3568 26.2036 36.8521 26 36.25 26C35.6479 26 35.1432 26.2036 34.7359 26.6109C34.3286 27.0182 34.125 27.5229 34.125 28.125C34.125 28.7271 34.3286 29.2318 34.7359 29.6391C35.1432 30.0464 35.6479 30.25 36.25 30.25ZM34.125 19.625H43.1563L38.375 13.25H34.125V19.625Z"/>
</symbol><symbol id="ease" viewBox="0 0 39 39">
<path d="M19.5 38.625C16.8438 38.625 14.3557 38.1203 12.0359 37.1109C9.71615 36.1016 7.6974 34.738 5.97969 33.0203C4.26198 31.3026 2.89844 29.2839 1.88906 26.9641C0.879688 24.6443 0.375 22.1563 0.375 19.5C0.375 16.8438 0.879688 14.3557 1.88906 12.0359C2.89844 9.71615 4.26198 7.6974 5.97969 5.97969C7.6974 4.26198 9.71615 2.89844 12.0359 1.88906C14.3557 0.879688 16.8438 0.375 19.5 0.375C22.4042 0.375 25.1578 0.994792 27.7609 2.23438C30.3641 3.47396 32.5688 5.22708 34.375 7.49375V2.5H38.625V15.25H25.875V11H31.7188C30.2667 9.01667 28.4781 7.45833 26.3531 6.325C24.2281 5.19167 21.9438 4.625 19.5 4.625C15.3563 4.625 11.8411 6.06823 8.95469 8.95469C6.06823 11.8411 4.625 15.3563 4.625 19.5C4.625 23.6438 6.06823 27.1589 8.95469 30.0453C11.8411 32.9318 15.3563 34.375 19.5 34.375C23.2188 34.375 26.4682 33.1708 29.2484 30.7625C32.0286 28.3542 33.6667 25.3083 34.1625 21.625H38.5188C37.9875 26.4771 35.9068 30.5234 32.2766 33.7641C28.6464 37.0047 24.3875 38.625 19.5 38.625ZM25.45 28.425L17.375 20.35V8.875H21.625V18.65L28.425 25.45L25.45 28.425Z"/>
</symbol><symbol id="filterButton" viewBox="0 0 16 13">
<path d="M2 4.5H14M4 8.5H12M6 12.5H10M0 0.5H16"/>
</symbol><symbol id="fresh" viewBox="0 0 47 41">
<path d="M4.375 27.875C3.20625 27.875 2.20573 27.4589 1.37344 26.6266C0.541146 25.7943 0.125 24.7938 0.125 23.625V4.5C0.125 3.33125 0.541146 2.33073 1.37344 1.49844C2.20573 0.666146 3.20625 0.25 4.375 0.25H42.625C43.7938 0.25 44.7943 0.666146 45.6266 1.49844C46.4589 2.33073 46.875 3.33125 46.875 4.5V23.625C46.875 24.7938 46.4589 25.7943 45.6266 26.6266C44.7943 27.4589 43.7938 27.875 42.625 27.875H4.375ZM4.375 4.5V23.625H42.625V4.5H4.375ZM4.53438 35.3125L4.375 32.125L42.5719 30.1063L42.7313 33.2938L4.53438 35.3125ZM4.375 40.5719V37.3844H42.625V40.5719H4.375ZM19.7813 20.4375C22.4021 20.4375 24.9255 19.9771 27.3516 19.0563C29.7776 18.1354 31.8938 16.7188 33.7 14.8063C33.9125 16.2938 34.6917 17.4271 36.0375 18.2063C37.3833 18.9854 38.8708 19.375 40.5 19.375V8.75C38.8708 8.75 37.3833 9.14844 36.0375 9.94531C34.6917 10.7422 33.9125 11.9021 33.7 13.425C31.8229 11.5833 29.6891 10.1667 27.2984 9.175C24.9078 8.18333 22.4021 7.6875 19.7813 7.6875C16.9833 7.6875 14.2917 8.17448 11.7063 9.14844C9.12083 10.1224 7.03125 11.7604 5.4375 14.0625C7.03125 16.3646 9.12083 18.0026 11.7063 18.9766C14.2917 19.9505 16.9833 20.4375 19.7813 20.4375Z"/>
</symbol><symbol id="frying" viewBox="0 0 22 18">
<path d="M2.425 7.5C2.65833 6.9 2.69583 6.36667 2.5375 5.9C2.37917 5.43333 2.10833 4.96667 1.725 4.5C1.175 3.83333 0.8125 3.20417 0.6375 2.6125C0.4625 2.02083 0.433333 1.31667 0.55 0.5H2.5C2.36667 1.13333 2.34583 1.65 2.4375 2.05C2.52917 2.45 2.76667 2.88333 3.15 3.35C3.78333 4.11667 4.1875 4.79583 4.3625 5.3875C4.5375 5.97917 4.54167 6.68333 4.375 7.5H2.425ZM6.425 7.5C6.65833 6.9 6.7 6.36667 6.55 5.9C6.4 5.43333 6.13333 4.96667 5.75 4.5C5.2 3.83333 4.83333 3.20417 4.65 2.6125C4.46667 2.02083 4.43333 1.31667 4.55 0.5H6.5C6.36667 1.13333 6.34583 1.65 6.4375 2.05C6.52917 2.45 6.76667 2.88333 7.15 3.35C7.78333 4.11667 8.1875 4.79583 8.3625 5.3875C8.5375 5.97917 8.54167 6.68333 8.375 7.5H6.425ZM10.425 7.5C10.6583 6.9 10.7 6.36667 10.55 5.9C10.4 5.43333 10.1333 4.96667 9.75 4.5C9.2 3.83333 8.83333 3.20417 8.65 2.6125C8.46667 2.02083 8.43333 1.31667 8.55 0.5H10.5C10.3667 1.13333 10.3458 1.65 10.4375 2.05C10.5292 2.45 10.7667 2.88333 11.15 3.35C11.7833 4.11667 12.1875 4.79583 12.3625 5.3875C12.5375 5.97917 12.5417 6.68333 12.375 7.5H10.425ZM3 17.5C2.16667 17.5 1.45833 17.2083 0.875 16.625C0.291667 16.0417 0 15.3333 0 14.5V9.5H14.025C14.1083 8.93333 14.3333 8.4375 14.7 8.0125C15.0667 7.5875 15.5167 7.28333 16.05 7.1L20.675 5.55L21.3 7.45L16.675 9C16.475 9.06667 16.3125 9.1875 16.1875 9.3625C16.0625 9.5375 16 9.73333 16 9.95V14.5C16 15.3333 15.7083 16.0417 15.125 16.625C14.5417 17.2083 13.8333 17.5 13 17.5H3ZM3 15.5H13C13.2833 15.5 13.5208 15.4042 13.7125 15.2125C13.9042 15.0208 14 14.7833 14 14.5V11.5H2V14.5C2 14.7833 2.09583 15.0208 2.2875 15.2125C2.47917 15.4042 2.71667 15.5 3 15.5Z"/>
</symbol><symbol id="guests" viewBox="0 0 51 41">
<path d="M2.01875 22.2625C1.38125 20.9875 0.885417 19.6948 0.53125 18.3844C0.177083 17.074 0 15.7458 0 14.4C0 10.4333 1.34583 7.10417 4.0375 4.4125C6.72917 1.72083 10.0583 0.375 14.025 0.375C16.2563 0.375 18.3813 0.844271 20.4 1.78281C22.4188 2.72135 24.1188 4.02292 25.5 5.6875C26.8813 4.02292 28.5813 2.72135 30.6 1.78281C32.6188 0.844271 34.7438 0.375 36.975 0.375C40.9417 0.375 44.2708 1.72083 46.9625 4.4125C49.6542 7.10417 51 10.4333 51 14.4C51 15.7458 50.8229 17.074 50.4688 18.3844C50.1146 19.6948 49.6188 20.9875 48.9813 22.2625C48.5917 21.5896 48.1313 20.9875 47.6 20.4563C47.0688 19.925 46.449 19.5 45.7406 19.1813C46.0594 18.3667 46.3073 17.5698 46.4844 16.7906C46.6615 16.0115 46.75 15.2146 46.75 14.4C46.75 11.6375 45.8115 9.31771 43.9344 7.44063C42.0573 5.56354 39.7375 4.625 36.975 4.625C34.1063 4.625 31.9016 5.41302 30.3609 6.98906C28.8203 8.5651 27.2 10.3271 25.5 12.275C23.8 10.2917 22.1797 8.52083 20.6391 6.9625C19.0984 5.40417 16.8938 4.625 14.025 4.625C11.2625 4.625 8.94271 5.56354 7.06563 7.44063C5.18854 9.31771 4.25 11.6375 4.25 14.4C4.25 15.2146 4.33854 16.0115 4.51563 16.7906C4.69271 17.5698 4.94063 18.3667 5.25938 19.1813C4.55104 19.5 3.93125 19.925 3.4 20.4563C2.86875 20.9875 2.40833 21.5896 2.01875 22.2625ZM0 40.75V37.4031C0 35.8448 0.788021 34.5964 2.36406 33.6578C3.9401 32.7193 5.98542 32.25 8.5 32.25C8.96042 32.25 9.40313 32.2589 9.82813 32.2766C10.2531 32.2943 10.6604 32.3385 11.05 32.4094C10.5542 33.1177 10.1823 33.8792 9.93438 34.6938C9.68646 35.5083 9.5625 36.376 9.5625 37.2969V40.75H0ZM12.75 40.75V37.2969C12.75 34.9948 13.9276 33.1354 16.2828 31.7188C18.638 30.3021 21.7104 29.5938 25.5 29.5938C29.325 29.5938 32.4063 30.3021 34.7438 31.7188C37.0813 33.1354 38.25 34.9948 38.25 37.2969V40.75H12.75ZM41.4375 40.75V37.2969C41.4375 36.376 41.3224 35.5083 41.0922 34.6938C40.862 33.8792 40.5167 33.1177 40.0563 32.4094C40.4458 32.3385 40.8443 32.2943 41.2516 32.2766C41.6589 32.2589 42.075 32.25 42.5 32.25C45.05 32.25 47.1042 32.7193 48.6625 33.6578C50.2208 34.5964 51 35.8448 51 37.4031V40.75H41.4375ZM25.5 33.8438C23.4813 33.8438 21.675 34.1094 20.0813 34.6406C18.4875 35.1719 17.549 35.7917 17.2656 36.5H33.7875C33.4688 35.7917 32.5214 35.1719 30.9453 34.6406C29.3693 34.1094 27.5542 33.8438 25.5 33.8438ZM8.5 30.125C7.33125 30.125 6.33073 29.7089 5.49844 28.8766C4.66615 28.0443 4.25 27.0438 4.25 25.875C4.25 24.6708 4.66615 23.6615 5.49844 22.8469C6.33073 22.0323 7.33125 21.625 8.5 21.625C9.70417 21.625 10.7135 22.0323 11.5281 22.8469C12.3427 23.6615 12.75 24.6708 12.75 25.875C12.75 27.0438 12.3427 28.0443 11.5281 28.8766C10.7135 29.7089 9.70417 30.125 8.5 30.125ZM42.5 30.125C41.3313 30.125 40.3307 29.7089 39.4984 28.8766C38.6661 28.0443 38.25 27.0438 38.25 25.875C38.25 24.6708 38.6661 23.6615 39.4984 22.8469C40.3307 22.0323 41.3313 21.625 42.5 21.625C43.7042 21.625 44.7135 22.0323 45.5281 22.8469C46.3427 23.6615 46.75 24.6708 46.75 25.875C46.75 27.0438 46.3427 28.0443 45.5281 28.8766C44.7135 29.7089 43.7042 30.125 42.5 30.125ZM25.5 28C23.7292 28 22.224 27.3802 20.9844 26.1406C19.7448 24.901 19.125 23.3958 19.125 21.625C19.125 19.8188 19.7448 18.3047 20.9844 17.0828C22.224 15.8609 23.7292 15.25 25.5 15.25C27.3063 15.25 28.8203 15.8609 30.0422 17.0828C31.2641 18.3047 31.875 19.8188 31.875 21.625C31.875 23.3958 31.2641 24.901 30.0422 26.1406C28.8203 27.3802 27.3063 28 25.5 28ZM25.5 19.5C24.8979 19.5 24.3932 19.7036 23.9859 20.1109C23.5786 20.5182 23.375 21.0229 23.375 21.625C23.375 22.2271 23.5786 22.7318 23.9859 23.1391C24.3932 23.5464 24.8979 23.75 25.5 23.75C26.1021 23.75 26.6068 23.5464 27.0141 23.1391C27.4214 22.7318 27.625 22.2271 27.625 21.625C27.625 21.0229 27.4214 20.5182 27.0141 20.1109C26.6068 19.7036 26.1021 19.5 25.5 19.5Z"/>
</symbol><symbol id="invite-to-job-lobster" viewBox="0 0 421 443">
<g clip-path="url(#clip0_69_915)">
<path d="M63.8158 387.263L117.106 393.141L142.958 401.926L179.131 401.857C179.131 401.857 197.376 417.753 174.68 430.863C161.971 438.179 143.846 424.904 143.846 424.904C143.846 424.904 106.885 424.841 95.3383 414.896C87.9797 408.558 80.4626 404.852 80.4626 404.852L79.4132 406.94C79.4132 406.94 111.803 438.248 116.711 441.71C121.589 445.145 157.229 449.291 160.958 450.181C164.657 451.045 169.146 452.683 168.334 456.91C167.71 460.347 163.454 460.738 159.249 460.428C155.045 460.118 115.539 453.301 112.548 452.656C105.635 451.158 69.7419 416.546 69.7419 416.546L68.8577 419.8C68.8577 419.8 100.336 454.977 102.923 462.037C103.784 464.372 101.041 503.802 100.899 506.183C100.757 508.564 98.4347 511.52 95.1059 511.422C91.6099 511.331 91.2378 506.879 90.855 504.019C90.4723 501.159 90.5765 469.364 90.2133 467.537C89.85 465.71 59.2948 428.116 59.2948 428.116L56.3125 431.913C56.3125 431.913 79.9181 467.815 80.73 472.722C81.6208 478.128 77.7088 504.259 76.7172 508.216C75.7256 512.172 71.8366 519.949 67.7825 518.655C64.6649 517.68 64.7683 508.373 65.6454 506.182C66.5225 503.991 71.0196 477.218 70.3536 475.489C69.6875 473.76 46.7374 441.18 46.7374 441.18L44.7167 444.625C44.7167 444.625 57.3992 476.866 56.8184 481.251C56.2084 485.608 44.4731 511.708 43.1612 513.556C41.8493 515.404 38.7131 520.716 35.7843 519.593C31.1787 517.849 33.8882 510.546 34.5699 507.749C35.225 504.981 45.1196 482.598 45.5415 479.617C45.9924 476.664 32.4796 451.891 32.4796 451.891L-24.0218 396.772C-24.0218 396.772 -59.0357 389.832 -60.5609 390.685C-62.0862 391.537 -82.8002 407.042 -85.2931 408.721C-86.8904 409.828 -90.4462 412.086 -93.3403 409.286C-97.0243 405.712 -93.4255 403.172 -90.0565 399.889C-86.6609 396.576 -64.5629 378.968 -60.1636 378.654C-58.799 378.564 -22.6769 381.654 -18.7699 385.218C-14.863 388.782 -15.529 387.052 -15.529 387.052L-14.0229 383.352C-14.0229 383.352 -35.9959 375.701 -41.6229 373.613C-47.2233 371.495 -65.8419 364.501 -67.2168 364.368C-68.6791 364.156 -94.0613 374.121 -96.0264 374.519C-98.3501 375.017 -102.228 374.524 -103.614 371.711C-104.842 369.309 -102.65 366.554 -98.6325 364.61C-94.5887 362.636 -68.5848 349.179 -66.793 349.264C-65.0279 349.378 -27.2566 364.656 -24.0807 365.684C-20.9048 366.711 -6.01043 373.514 -6.01043 373.514L-5.86122 370.071C-5.86122 370.071 -31.4168 350.712 -35.474 348.133C-39.5313 345.554 -53.92 336.381 -55.1087 336.045C-56.2974 335.708 -77.5945 342.776 -80.1309 343.507C-82.6407 344.209 -92.0808 344.252 -92.8477 340.935C-93.5854 337.644 -89.4093 334.296 -86.7312 333C-84.0531 331.703 -56.5559 322.172 -53.0256 322.401C-49.4953 322.63 -36.4805 331.083 -28.5813 336.419C-20.6821 341.755 1.42276 357.752 1.42276 357.752L2.69013 355.543L-23.6313 332.281C-28.2303 328.246 -39.4754 318.79 -40.8985 315.782C-43.2792 310.779 -48.8668 290.085 -49.4026 285.109C-49.6165 282.884 -53.5235 268.37 -46.3003 266.893C-40.5456 265.679 -38.5472 276.956 -37.6498 280.072C-36.7259 283.158 -30.7818 304.926 -27.8794 309.122C-24.9213 313.316 8.92151 344.027 8.92151 344.027L13.1763 338.133C13.1763 338.133 -2.27407 331.998 -10.2188 315.937C-18.534 299.111 -15.5052 294.503 -15.5052 294.503C-15.5052 294.503 -26.0607 285.462 -21.3945 273.319C-18.6242 266.124 -9.06869 252.78 -9.06869 252.78L14.3976 275.307L6.07847 290.634L44.0371 359.874L63.8158 387.263Z"/>
<path d="M-63.9586 454.784C-69.1885 456.476 -84.8311 451.021 -104.566 452.57C-121.768 453.919 -139.077 465.692 -136.146 483.911C-133.214 502.129 -119.632 506.506 -114.66 506.501C-109.685 506.552 -98.6789 506.549 -98.6789 506.549L-86.4476 527.749L-63.9051 539.284C-63.9051 539.284 -66.1401 553.271 -59.4596 561.875C-52.7791 570.479 -31.7491 583.146 -16.1512 563.294C-0.553312 543.442 -17.5899 505.2 -16.2613 501.284C-13.8203 494.216 22.3758 466.071 31.4856 458.837C40.5954 451.602 75.2254 423.418 82.2252 415.861C90.2915 407.194 95.6607 400.02 95.6607 400.02C95.6607 400.02 114.911 397.655 123.404 400.115C131.898 402.574 145.993 412.654 145.993 412.654C145.993 412.654 156.767 402.717 168.089 405.354C179.412 407.99 186.606 419.253 186.606 419.253C186.606 419.253 197.954 430.939 220.839 426.229C243.725 421.518 278.655 381.001 286.693 357.725C294.731 334.449 304.463 314.001 304.14 277.17C303.957 256.758 300.431 252.366 291.097 252.292C281.764 252.218 276.399 283.221 267.818 301.353C259.951 318.001 256.833 324.932 247.653 336.109C239.265 346.299 234.528 352.02 231.261 349.628C227.995 347.236 230.452 342.96 239.528 330.727C248.604 318.494 255.87 297.879 256.851 290.655C257.813 283.627 252.211 279.638 246.081 281.205C239.952 282.771 221.62 305.151 212.164 319.441C202.708 333.731 190.446 349.574 184.177 362.712C175.487 380.906 175.824 394.942 175.824 394.942C175.824 394.942 169.982 389.986 162.867 391.402C155.753 392.819 148.374 396.985 148.374 396.985C148.374 396.985 138.472 395.484 133.91 394.688C129.348 393.892 106.342 388.076 106.342 388.076C106.342 388.076 117.354 361.423 118.388 348.051C119.395 334.708 123.025 295.125 121.241 293.391C119.049 291.285 77.5991 302.351 67.6011 304.235C57.6031 306.118 44.0535 310.959 39.1587 313.865C34.2639 316.772 30.1864 319.836 30.1864 319.836C30.1864 319.836 23.8858 307.946 20.0366 303.206C16.1874 298.467 10.0481 290.089 10.0481 290.089C10.0481 290.089 15.2297 285.521 16.5884 278C17.4592 273.239 17.4634 266.031 17.4634 266.031C17.4634 266.031 25.7102 266.77 33.3899 260.635C41.0696 254.5 63.8619 220.378 70.4447 209.824C77.0567 199.296 100.333 172.667 102.1 165.518C103.866 158.369 94.2164 153.84 83.1859 158.788C76.2891 161.898 63.3566 172.269 56.0254 181.126C48.6942 189.983 44.7189 200.138 39.8145 196.146C34.9101 192.153 51.1847 172.437 63.8987 160.959C76.6128 149.48 110.78 131.29 115.129 126.23C119.478 121.169 118.015 111.822 101.104 112.208C84.1932 112.593 57.6858 114.481 27.1512 139.991C5.52226 158.081 -9.41955 174.578 -16.9924 189.731C-24.5652 204.885 -32.6974 224.282 -23.1478 247.308C-13.5423 270.333 8.40597 265.889 5.60833 279.789C4.30742 286.134 -2.49306 291.95 -2.49306 291.95C-2.49306 291.95 4.94322 296.329 13.4757 311.804C20.7564 324.963 18.2473 329.939 18.2473 329.939C18.2473 329.939 15.1913 333.347 5.84542 345.174C-5.55952 359.609 -29.0526 401.585 -30.8821 404.937C-32.7115 408.29 -51.946 438.979 -54.9037 443.92C-58.1524 449.824 -61.1219 453.899 -63.9586 454.784Z"/>
<path d="M96.279 204.106C101.098 209.949 104.762 205.932 108.714 202.419C116.719 195.284 129.944 191.502 141.164 201.455C152.383 211.408 144.304 228.931 129.13 245.976C113.956 263.02 84.0366 300.798 84.0366 300.798L94.8656 305.85C94.8656 305.85 136.007 257.879 142.443 249.594C148.878 241.308 171.969 215.117 149.274 193.852C126.579 172.587 105.08 189.773 103.141 191.665C99.5527 195.188 92.5246 199.555 96.279 204.106ZM113.708 316.523C113.708 316.523 160.121 267.691 168.419 259.414C176.716 251.138 194.04 232.556 215.246 252.584C229.497 266.065 227.516 274.152 221.433 284.568C218.088 290.284 213.629 294.059 211.485 295.883C209.739 297.388 206.673 298.934 203.301 295.778C199.659 292.335 201.249 289.361 203.632 286.749C206.014 284.137 219.882 270.164 209.759 260.649C199.636 251.133 188.529 256.283 177.752 267.687C166.976 279.091 118.893 328.933 118.893 328.933L113.708 316.523Z"/>
<path d="M-64.0922 466.466C-64.0922 466.466 -54.4908 469.936 -42.7879 480.238C-31.1142 490.512 -25.5072 501.289 -25.5072 501.289C-25.5072 501.289 -57.9256 527.752 -72.5037 514.454C-87.0819 501.156 -64.0922 466.466 -64.0922 466.466ZM-56.5784 446.986C-56.5784 446.986 -59.172 450.122 -60.4435 451.633C-61.6884 453.115 -63.9849 454.813 -63.9849 454.813C-63.9849 454.813 -49.962 462.102 -36.3864 474.859C-22.8108 487.617 -16.2267 501.422 -16.2267 501.422C-16.2267 501.422 -14.363 498.207 -12.9243 496.689C-11.459 495.141 -9.48828 493.039 -9.48828 493.039C-9.48828 493.039 -14.7901 479.175 -29.1171 466.48C-43.4466 453.73 -56.5784 446.986 -56.5784 446.986ZM-37.9367 416.77C-37.9367 416.77 -22.8679 422.503 -4.83807 438.576C13.1917 454.648 19.8505 468.254 19.8505 468.254L-3.36554 487.674C-3.36554 487.674 -8.50361 474.333 -24.7145 459.546C-40.9254 444.759 -52.9686 441.038 -52.9686 441.038L-37.9367 416.77Z"/>
<path d="M-30.2771 427.229C-33.0185 431.406 -32.0485 435.496 -27.3431 439.414C-21.36 444.391 -16.0619 444.79 -12.8612 442.101C-9.63381 439.383 -9.91544 433.25 -16.474 427.908C-20.7978 424.392 -27.3256 422.764 -30.2771 427.229ZM-33.8242 410.212C-33.8242 410.212 -13.0827 420.853 -0.778768 432.076C11.5252 443.3 25.4618 463.918 25.4618 463.918C25.4618 463.918 34.0079 457.185 42.174 450.692C50.3136 444.228 60.6426 434.954 60.6426 434.954C60.6426 434.954 26.971 439.601 8.41419 421.179C-10.1426 402.756 -11.0608 371.203 -11.0608 371.203C-11.0608 371.203 -19.0911 383.696 -24.0413 392.695C-28.0597 400.087 -33.8242 410.212 -33.8242 410.212Z"/>
<path d="M22.0058 341.219C13.1105 351.908 -0.205629 370.956 9.18295 374.659C18.5715 378.363 24.3785 358.821 33.0314 350.155C41.6844 341.489 55.211 336.147 53.5381 330.134C51.8918 324.091 37.8359 322.167 22.0058 341.219Z"/>
<path d="M55.2222 327.877C57.608 332.991 53.593 336.807 49.2224 338.964C45.7551 340.715 40.9813 339.565 38.282 336.142C35.1377 332.152 38.9305 324.714 44.9614 323.432C51.0215 322.176 53.6747 324.596 55.2222 327.877Z"/>
<path d="M101.916 350.886C106.951 352.529 112.381 349.729 114.044 344.632C115.707 339.534 112.974 334.07 107.939 332.428C102.904 330.785 97.4735 333.585 95.8104 338.682C94.1472 343.779 96.8807 349.243 101.916 350.886Z"/>
<path d="M82.5655 324.201C87.8139 322.064 90.5227 316.535 88.6158 311.852C86.7089 307.169 80.9083 305.104 75.6599 307.242C70.4114 309.379 67.7026 314.908 69.6095 319.591C71.5165 324.274 77.317 326.338 82.5655 324.201Z"/>
<path d="M187.006 371.382C181.426 379.432 176.666 390.154 182.951 394.391C189.235 398.628 198.675 385.819 202.425 381.708C206.175 377.597 214.468 363.528 209.278 359.381C202.491 353.938 194.183 360.996 187.006 371.382Z"/>
<path d="M221.227 350.731C226.279 353.683 234.408 359.763 238.681 354.259C242.954 348.755 233.074 343.482 228.824 340.353C224.545 337.198 217.107 333.405 213.375 337.906C209.643 342.407 217.811 348.737 221.227 350.731ZM38.7198 204.548C41.5351 206.849 48.6821 215.879 53.7174 209.949C58.7527 204.019 46.9645 195.51 45.1277 193.834C43.2908 192.159 36.1788 187.541 32.4288 191.652C28.6788 195.763 34.4517 201.029 38.7198 204.548Z"/>
</g>

</symbol><symbol id="katalog" viewBox="0 0 18 18">
<path d="M5.5 7.5H2C1.45 7.5 0.979167 7.30417 0.5875 6.9125C0.195833 6.52083 0 6.05 0 5.5V2C0 1.45 0.195833 0.979167 0.5875 0.5875C0.979167 0.195833 1.45 0 2 0H5.5C6.05 0 6.52083 0.195833 6.9125 0.5875C7.30417 0.979167 7.5 1.45 7.5 2V5.5C7.5 6.05 7.30417 6.52083 6.9125 6.9125C6.52083 7.30417 6.05 7.5 5.5 7.5ZM2 5.5H5.5V2H2V5.5ZM5.5 18H2C1.45 18 0.979167 17.8042 0.5875 17.4125C0.195833 17.0208 0 16.55 0 16V12.5C0 11.95 0.195833 11.4792 0.5875 11.0875C0.979167 10.6958 1.45 10.5 2 10.5H5.5C6.05 10.5 6.52083 10.6958 6.9125 11.0875C7.30417 11.4792 7.5 11.95 7.5 12.5V16C7.5 16.55 7.30417 17.0208 6.9125 17.4125C6.52083 17.8042 6.05 18 5.5 18ZM2 16H5.5V12.5H2V16ZM16 7.5H12.5C11.95 7.5 11.4792 7.30417 11.0875 6.9125C10.6958 6.52083 10.5 6.05 10.5 5.5V2C10.5 1.45 10.6958 0.979167 11.0875 0.5875C11.4792 0.195833 11.95 0 12.5 0H16C16.55 0 17.0208 0.195833 17.4125 0.5875C17.8042 0.979167 18 1.45 18 2V5.5C18 6.05 17.8042 6.52083 17.4125 6.9125C17.0208 7.30417 16.55 7.5 16 7.5ZM12.5 5.5H16V2H12.5V5.5ZM16 18H12.5C11.95 18 11.4792 17.8042 11.0875 17.4125C10.6958 17.0208 10.5 16.55 10.5 16V12.5C10.5 11.95 10.6958 11.4792 11.0875 11.0875C11.4792 10.6958 11.95 10.5 12.5 10.5H16C16.55 10.5 17.0208 10.6958 17.4125 11.0875C17.8042 11.4792 18 11.95 18 12.5V16C18 16.55 17.8042 17.0208 17.4125 17.4125C17.0208 17.8042 16.55 18 16 18ZM12.5 16H16V12.5H12.5V16Z"/>
</symbol><symbol id="login" viewBox="0 0 20 20">
<path d="M3.85 15.1C4.7 14.45 5.65 13.9375 6.7 13.5625C7.75 13.1875 8.85 13 10 13C11.15 13 12.25 13.1875 13.3 13.5625C14.35 13.9375 15.3 14.45 16.15 15.1C16.7333 14.4167 17.1875 13.6417 17.5125 12.775C17.8375 11.9083 18 10.9833 18 10C18 7.78333 17.2208 5.89583 15.6625 4.3375C14.1042 2.77917 12.2167 2 10 2C7.78333 2 5.89583 2.77917 4.3375 4.3375C2.77917 5.89583 2 7.78333 2 10C2 10.9833 2.1625 11.9083 2.4875 12.775C2.8125 13.6417 3.26667 14.4167 3.85 15.1ZM10 11C9.01667 11 8.1875 10.6625 7.5125 9.9875C6.8375 9.3125 6.5 8.48333 6.5 7.5C6.5 6.51667 6.8375 5.6875 7.5125 5.0125C8.1875 4.3375 9.01667 4 10 4C10.9833 4 11.8125 4.3375 12.4875 5.0125C13.1625 5.6875 13.5 6.51667 13.5 7.5C13.5 8.48333 13.1625 9.3125 12.4875 9.9875C11.8125 10.6625 10.9833 11 10 11ZM10 20C8.61667 20 7.31667 19.7375 6.1 19.2125C4.88333 18.6875 3.825 17.975 2.925 17.075C2.025 16.175 1.3125 15.1167 0.7875 13.9C0.2625 12.6833 0 11.3833 0 10C0 8.61667 0.2625 7.31667 0.7875 6.1C1.3125 4.88333 2.025 3.825 2.925 2.925C3.825 2.025 4.88333 1.3125 6.1 0.7875C7.31667 0.2625 8.61667 0 10 0C11.3833 0 12.6833 0.2625 13.9 0.7875C15.1167 1.3125 16.175 2.025 17.075 2.925C17.975 3.825 18.6875 4.88333 19.2125 6.1C19.7375 7.31667 20 8.61667 20 10C20 11.3833 19.7375 12.6833 19.2125 13.9C18.6875 15.1167 17.975 16.175 17.075 17.075C16.175 17.975 15.1167 18.6875 13.9 19.2125C12.6833 19.7375 11.3833 20 10 20ZM10 18C10.8833 18 11.7167 17.8708 12.5 17.6125C13.2833 17.3542 14 16.9833 14.65 16.5C14 16.0167 13.2833 15.6458 12.5 15.3875C11.7167 15.1292 10.8833 15 10 15C9.11667 15 8.28333 15.1292 7.5 15.3875C6.71667 15.6458 6 16.0167 5.35 16.5C6 16.9833 6.71667 17.3542 7.5 17.6125C8.28333 17.8708 9.11667 18 10 18ZM10 9C10.4333 9 10.7917 8.85833 11.075 8.575C11.3583 8.29167 11.5 7.93333 11.5 7.5C11.5 7.06667 11.3583 6.70833 11.075 6.425C10.7917 6.14167 10.4333 6 10 6C9.56667 6 9.20833 6.14167 8.925 6.425C8.64167 6.70833 8.5 7.06667 8.5 7.5C8.5 7.93333 8.64167 8.29167 8.925 8.575C9.20833 8.85833 9.56667 9 10 9Z"/>
</symbol><symbol id="loveyou" viewBox="0 0 43 40">
<path d="M21.5 39.625L18.4188 36.8625C14.8417 33.6396 11.8844 30.8594 9.54688 28.5219C7.20938 26.1844 5.35 24.0859 3.96875 22.2265C2.5875 20.3672 1.6224 18.6583 1.07344 17.1C0.524479 15.5416 0.25 13.9479 0.25 12.3187C0.25 8.98956 1.36563 6.20935 3.59688 3.9781C5.82813 1.74685 8.60833 0.631226 11.9375 0.631226C13.7792 0.631226 15.5323 1.02081 17.1969 1.79998C18.8615 2.57914 20.2958 3.67706 21.5 5.09373C22.7042 3.67706 24.1385 2.57914 25.8031 1.79998C27.4677 1.02081 29.2208 0.631226 31.0625 0.631226C34.3917 0.631226 37.1719 1.74685 39.4031 3.9781C41.6344 6.20935 42.75 8.98956 42.75 12.3187C42.75 13.9479 42.4755 15.5416 41.9266 17.1C41.3776 18.6583 40.4125 20.3672 39.0313 22.2265C37.65 24.0859 35.7906 26.1844 33.4531 28.5219C31.1156 30.8594 28.1583 33.6396 24.5813 36.8625L21.5 39.625ZM21.5 33.8875C24.9 30.8416 27.6979 28.2297 29.8938 26.0515C32.0896 23.8734 33.825 21.9786 35.1 20.3672C36.375 18.7557 37.2604 17.3213 37.7563 16.064C38.2521 14.8067 38.5 13.5583 38.5 12.3187C38.5 10.1937 37.7917 8.42289 36.375 7.00623C34.9583 5.58956 33.1875 4.88123 31.0625 4.88123C29.3979 4.88123 27.8573 5.3505 26.4406 6.28904C25.024 7.22758 24.05 8.42289 23.5188 9.87498H19.4813C18.95 8.42289 17.976 7.22758 16.5594 6.28904C15.1427 5.3505 13.6021 4.88123 11.9375 4.88123C9.8125 4.88123 8.04167 5.58956 6.625 7.00623C5.20833 8.42289 4.5 10.1937 4.5 12.3187C4.5 13.5583 4.74792 14.8067 5.24375 16.064C5.73958 17.3213 6.625 18.7557 7.9 20.3672C9.175 21.9786 10.9104 23.8734 13.1063 26.0515C15.3021 28.2297 18.1 30.8416 21.5 33.8875Z"/>
</symbol><symbol id="mir" viewBox="0 0 55 15">
<g clip-path="url(#clip0_41_352)">
<path d="M0 0.00244101H5.15986C5.62893 0.00244101 7.03617 -0.153784 7.66161 2.03336C8.13068 3.43938 8.75612 5.62653 9.69428 8.90724H10.007C10.9452 5.4703 11.7269 3.12693 12.0397 2.03336C12.6651 -0.153784 14.2287 0.00244101 14.8541 0.00244101H19.7013V15H14.6978V6.0952H14.3851L11.7269 15H7.97432L5.31622 6.0952H4.84714V15H0M21.7339 0.00244101H26.7374V8.90724H27.2065L30.4901 1.56469C31.1155 0.158666 32.5227 0.00244101 32.5227 0.00244101H37.2135V15H32.21V6.0952H31.8973L28.6138 13.4378C27.9883 14.8438 26.4247 15 26.4247 15H21.7339M43.937 10.4695V15H39.2462V7.18877H54.5694C53.944 9.06347 51.7549 10.4695 49.2532 10.4695"/>
<path d="M54.8783 6.25289C55.5038 3.44085 53.6275 0.00390625 49.5621 0.00390625H38.9297C39.2424 3.28462 42.0569 6.25289 45.0277 6.25289"/>
</g>

</symbol><symbol id="modal-back-arrow" viewBox="0 0 17 12">
<path d="M17 6H1M1 6L5 1M1 6L5 11"/>
</symbol><symbol id="open" viewBox="0 0 47 33">
<path d="M23.5 26C26.1563 26 28.4141 25.0703 30.2734 23.2109C32.1328 21.3516 33.0625 19.0938 33.0625 16.4375C33.0625 13.7813 32.1328 11.5234 30.2734 9.66406C28.4141 7.80469 26.1563 6.875 23.5 6.875C20.8438 6.875 18.5859 7.80469 16.7266 9.66406C14.8672 11.5234 13.9375 13.7813 13.9375 16.4375C13.9375 19.0938 14.8672 21.3516 16.7266 23.2109C18.5859 25.0703 20.8438 26 23.5 26ZM23.5 22.175C21.9063 22.175 20.5516 21.6172 19.4359 20.5016C18.3203 19.3859 17.7625 18.0313 17.7625 16.4375C17.7625 14.8438 18.3203 13.4891 19.4359 12.3734C20.5516 11.2578 21.9063 10.7 23.5 10.7C25.0938 10.7 26.4484 11.2578 27.5641 12.3734C28.6797 13.4891 29.2375 14.8438 29.2375 16.4375C29.2375 18.0313 28.6797 19.3859 27.5641 20.5016C26.4484 21.6172 25.0938 22.175 23.5 22.175ZM23.5 32.375C18.3292 32.375 13.6188 30.9318 9.36875 28.0453C5.11875 25.1589 2.0375 21.2896 0.125 16.4375C2.0375 11.5854 5.11875 7.71615 9.36875 4.82969C13.6188 1.94323 18.3292 0.5 23.5 0.5C28.6708 0.5 33.3813 1.94323 37.6313 4.82969C41.8813 7.71615 44.9625 11.5854 46.875 16.4375C44.9625 21.2896 41.8813 25.1589 37.6313 28.0453C33.3813 30.9318 28.6708 32.375 23.5 32.375ZM23.5 28.125C27.5021 28.125 31.1766 27.0714 34.5234 24.9641C37.8703 22.8568 40.4292 20.0146 42.2 16.4375C40.4292 12.8604 37.8703 10.0182 34.5234 7.91094C31.1766 5.80365 27.5021 4.75 23.5 4.75C19.4979 4.75 15.8234 5.80365 12.4766 7.91094C9.12969 10.0182 6.57083 12.8604 4.8 16.4375C6.57083 20.0146 9.12969 22.8568 12.4766 24.9641C15.8234 27.0714 19.4979 28.125 23.5 28.125Z"/>
</symbol><symbol id="reset-form" viewBox="0 0 14 13">
    <path d="M13 0.799988L1 12.2" stroke-linecap="square" stroke-linejoin="round"/>
    <path d="M1 0.799988L13 12.2" stroke-linecap="square" stroke-linejoin="round"/>
</symbol><symbol id="reviewFormLobster" viewBox="0 0 284 270">
<g clip-path="url(#clip0_175_8167)">
<path d="M35.1833 269.361L72.2493 273.449L90.2308 279.559L115.391 279.511C115.391 279.511 128.081 290.567 112.295 299.686C103.455 304.775 90.8481 295.541 90.8481 295.541C90.8481 295.541 65.1401 295.498 57.1087 288.58C51.9904 284.172 46.7619 281.594 46.7619 281.594L46.032 283.046C46.032 283.046 68.5606 304.823 71.9743 307.231C75.3677 309.62 100.157 312.504 102.75 313.123C105.323 313.724 108.445 314.863 107.881 317.803C107.447 320.194 104.486 320.466 101.562 320.25C98.6375 320.035 71.1593 315.293 69.0791 314.844C64.2708 313.802 39.3051 289.728 39.3051 289.728L38.6901 291.991C38.6901 291.991 60.5845 316.458 62.3839 321.369C62.9831 322.993 61.0755 350.419 60.9766 352.075C60.8778 353.731 59.2624 355.787 56.9471 355.719C54.5154 355.656 54.2566 352.559 53.9904 350.57C53.7242 348.581 53.7967 326.466 53.544 325.195C53.2914 323.924 32.0387 297.776 32.0387 297.776L29.9644 300.416C29.9644 300.416 46.3832 325.388 46.9479 328.801C47.5675 332.561 44.8465 350.737 44.1568 353.489C43.4671 356.241 40.7621 361.65 37.9423 360.75C35.7739 360.072 35.8458 353.599 36.4558 352.074C37.0659 350.55 40.1939 331.929 39.7306 330.726C39.2673 329.523 23.3044 306.862 23.3044 306.862L21.8989 309.258C21.8989 309.258 30.7202 331.684 30.3162 334.733C29.8919 337.764 21.7294 355.918 20.817 357.203C19.9045 358.489 17.7231 362.183 15.686 361.403C12.4826 360.19 14.3672 355.11 14.8413 353.164C15.2969 351.239 22.1792 335.67 22.4726 333.597C22.7862 331.543 13.3874 314.312 13.3874 314.312L-25.9121 275.975C-25.9121 275.975 -50.266 271.147 -51.3268 271.74C-52.3877 272.333 -66.7953 283.118 -68.5293 284.285C-69.6403 285.055 -72.1135 286.626 -74.1265 284.678C-76.6889 282.192 -74.1858 280.426 -71.8425 278.142C-69.4807 275.838 -54.1104 263.591 -51.0505 263.373C-50.1013 263.31 -24.9766 265.459 -22.2592 267.938C-19.5417 270.417 -20.005 269.214 -20.005 269.214L-18.9574 266.64C-18.9574 266.64 -34.2406 261.318 -38.1545 259.866C-42.0499 258.393 -55 253.528 -55.9563 253.436C-56.9735 253.288 -74.628 260.22 -75.9948 260.496C-77.6111 260.842 -80.3081 260.5 -81.2724 258.543C-82.1263 256.872 -80.6016 254.956 -77.8074 253.604C-74.9948 252.231 -56.9078 242.871 -55.6616 242.93C-54.4338 243.01 -28.1621 253.636 -25.9531 254.351C-23.7441 255.065 -13.3843 259.797 -13.3843 259.797L-13.2805 257.402C-13.2805 257.402 -31.0557 243.937 -33.8777 242.143C-36.6997 240.349 -46.7077 233.97 -47.5346 233.736C-48.3614 233.502 -63.1745 238.418 -64.9387 238.926C-66.6844 239.414 -73.2505 239.444 -73.7839 237.137C-74.297 234.848 -71.3923 232.519 -69.5295 231.617C-67.6668 230.716 -48.5412 224.086 -46.0857 224.245C-43.6301 224.405 -34.5777 230.284 -29.0834 233.996C-23.5891 237.707 -8.21415 248.834 -8.21415 248.834L-7.33264 247.297L-25.6405 231.117C-28.8393 228.311 -36.6608 221.734 -37.6507 219.642C-39.3066 216.162 -43.193 201.768 -43.5657 198.307C-43.7145 196.76 -46.432 186.664 -41.4079 185.637C-37.4052 184.792 -36.0152 192.637 -35.3911 194.804C-34.7484 196.95 -30.614 212.091 -28.5952 215.01C-26.5377 217.927 -2.9984 239.288 -2.9984 239.288L-0.0389847 235.188C-0.0389847 235.188 -10.7855 230.921 -16.3115 219.75C-22.095 208.047 -19.9884 204.841 -19.9884 204.841C-19.9884 204.841 -27.3303 198.553 -24.0847 190.107C-22.1578 185.103 -15.5115 175.821 -15.5115 175.821L0.810472 191.489L-4.97588 202.15L21.4262 250.31L35.1833 269.361Z"/>
<path d="M-53.6894 316.324C-57.3271 317.502 -68.2073 313.707 -81.9338 314.785C-93.8985 315.723 -105.938 323.911 -103.899 336.583C-101.86 349.255 -92.4131 352.3 -88.9547 352.296C-85.4945 352.332 -77.8391 352.33 -77.8391 352.33L-69.3316 367.075L-53.6522 375.099C-53.6522 375.099 -55.2068 384.827 -50.5602 390.812C-45.9136 396.796 -31.2861 405.606 -20.437 391.799C-9.58795 377.991 -21.4378 351.391 -20.5136 348.667C-18.8158 343.751 6.36041 324.175 12.6967 319.143C19.033 314.112 43.1198 294.508 47.9886 289.252C53.599 283.224 57.3336 278.233 57.3336 278.233C57.3336 278.233 70.7232 276.589 76.6307 278.299C82.5383 280.01 92.3422 287.021 92.3422 287.021C92.3422 287.021 99.8357 280.109 107.711 281.943C115.587 283.777 120.591 291.611 120.591 291.611C120.591 291.611 128.483 299.739 144.402 296.463C160.32 293.187 184.615 265.005 190.206 248.815C195.797 232.626 202.566 218.403 202.341 192.785C202.214 178.588 199.761 175.533 193.269 175.481C186.777 175.43 183.046 196.994 177.077 209.606C171.605 221.185 169.437 226.006 163.052 233.78C157.218 240.868 153.922 244.847 151.65 243.183C149.378 241.519 151.088 238.546 157.4 230.037C163.713 221.528 168.767 207.19 169.449 202.165C170.119 197.277 166.222 194.502 161.958 195.592C157.695 196.681 144.945 212.247 138.368 222.187C131.79 232.126 123.261 243.146 118.901 252.284C112.857 264.939 113.091 274.701 113.091 274.701C113.091 274.701 109.028 271.254 104.079 272.24C99.1309 273.225 93.9984 276.122 93.9984 276.122C93.9984 276.122 87.1111 275.078 83.938 274.525C80.7649 273.971 64.763 269.926 64.763 269.926C64.763 269.926 72.4221 251.388 73.1413 242.086C73.842 232.805 76.3666 205.274 75.1259 204.068C73.6014 202.603 44.7709 210.3 37.8168 211.61C30.8627 212.92 21.4383 216.287 18.0337 218.309C14.6291 220.33 11.7931 222.462 11.7931 222.462C11.7931 222.462 7.41066 214.192 4.73335 210.895C2.05604 207.598 -2.21416 201.771 -2.21416 201.771C-2.21416 201.771 1.38994 198.594 2.33493 193.363C2.94063 190.051 2.94358 185.038 2.94358 185.038C2.94358 185.038 8.67962 185.552 14.0212 181.284C19.3628 177.017 35.216 153.284 39.7947 145.943C44.3936 138.62 60.5832 120.098 61.8122 115.126C63.0411 110.154 56.329 107.003 48.6568 110.445C43.8597 112.608 34.8645 119.822 29.7653 125.982C24.6661 132.143 21.9011 139.206 18.4898 136.429C15.0786 133.651 26.3984 119.939 35.2416 111.955C44.0848 103.971 67.8497 91.3186 70.8746 87.7989C73.8995 84.2791 72.882 77.7779 61.1197 78.0461C49.3574 78.3142 30.9202 79.6272 9.6819 97.3707C-5.36209 109.953 -15.7549 121.428 -21.0221 131.967C-26.2894 142.507 -31.9458 155.999 -25.3035 172.015C-18.6225 188.03 -3.35633 184.939 -5.30223 194.607C-6.20708 199.02 -10.9371 203.065 -10.9371 203.065C-10.9371 203.065 -5.76484 206.111 0.169891 216.875C5.23398 226.027 3.48878 229.488 3.48878 229.488C3.48878 229.488 1.36318 231.859 -5.1373 240.085C-13.07 250.126 -29.4106 279.322 -30.6831 281.654C-31.9555 283.985 -45.3341 305.332 -47.3913 308.768C-49.6509 312.874 -51.7164 315.709 -53.6894 316.324Z"/>
<path d="M57.7626 141.966C61.1144 146.03 63.6631 143.236 66.4121 140.793C71.9798 135.829 81.1783 133.199 88.982 140.122C96.7858 147.044 91.1662 159.233 80.6121 171.088C70.0579 182.944 49.2474 209.22 49.2474 209.22L56.7795 212.734C56.7795 212.734 85.3951 179.368 89.8716 173.605C94.3481 167.842 110.408 149.625 94.623 134.834C78.8377 120.043 63.8838 131.997 62.5353 133.312C60.0396 135.763 55.1512 138.8 57.7626 141.966ZM69.8853 220.157C69.8853 220.157 102.168 186.192 107.939 180.435C113.711 174.679 125.76 161.754 140.51 175.684C150.422 185.062 149.044 190.686 144.813 197.931C142.487 201.907 139.386 204.533 137.894 205.802C136.679 206.848 134.547 207.923 132.202 205.728C129.668 203.333 130.774 201.265 132.432 199.448C134.089 197.631 143.735 187.912 136.694 181.294C129.653 174.676 121.927 178.258 114.431 186.189C106.936 194.121 73.4916 228.789 73.4916 228.789L69.8853 220.157Z"/>
<path d="M-30.2636 297.159C-32.1703 300.064 -31.4957 302.908 -28.2228 305.634C-24.0613 309.096 -20.3762 309.373 -18.1499 307.503C-15.9051 305.612 -16.101 301.347 -20.6628 297.631C-23.6703 295.185 -28.2106 294.053 -30.2636 297.159ZM-32.7307 285.323C-32.7307 285.323 -18.304 292.724 -9.74602 300.53C-1.18802 308.337 8.50557 322.678 8.50557 322.678C8.50557 322.678 14.4498 317.994 20.1298 313.478C25.7912 308.982 32.9756 302.532 32.9756 302.532C32.9756 302.532 9.55528 305.764 -3.35187 292.95C-16.259 280.136 -16.8977 258.19 -16.8977 258.19C-16.8977 258.19 -22.4831 266.879 -25.9263 273.138C-28.7212 278.28 -32.7307 285.323 -32.7307 285.323Z"/>
<path d="M6.10395 237.335C-0.0831476 244.769 -9.34518 258.018 -2.81496 260.594C3.71526 263.17 7.75427 249.578 13.7728 243.55C19.7914 237.522 29.1998 233.806 28.0362 229.624C26.8911 225.422 17.1146 224.083 6.10395 237.335Z"/>
<path d="M29.2055 228.055C30.8649 231.612 28.0723 234.266 25.0324 235.766C22.6207 236.984 19.3003 236.184 17.4228 233.803C15.2357 231.028 17.8738 225.855 22.0686 224.963C26.2837 224.089 28.1291 225.772 29.2055 228.055Z"/>
<path d="M61.6853 244.059C65.1874 245.201 68.9642 243.254 70.121 239.708C71.2778 236.163 69.3765 232.362 65.8744 231.22C62.3723 230.077 58.5954 232.025 57.4386 235.57C56.2818 239.115 58.1831 242.916 61.6853 244.059Z"/>
<path d="M48.2256 225.497C51.8761 224.011 53.7602 220.165 52.4339 216.908C51.1075 213.651 47.0729 212.215 43.4224 213.701C39.7718 215.188 37.8877 219.033 39.2141 222.291C40.5405 225.548 44.575 226.984 48.2256 225.497Z"/>
<path d="M120.869 258.314C116.988 263.914 113.677 271.371 118.048 274.318C122.419 277.265 128.986 268.356 131.594 265.497C134.202 262.637 139.97 252.852 136.36 249.967C131.64 246.181 125.861 251.09 120.869 258.314Z"/>
<path d="M144.672 243.95C148.186 246.004 153.84 250.233 156.812 246.405C159.784 242.576 152.912 238.909 149.956 236.732C146.979 234.537 141.806 231.899 139.21 235.03C136.614 238.161 142.296 242.563 144.672 243.95ZM17.7288 142.273C19.6871 143.874 24.6582 150.155 28.1605 146.03C31.6628 141.905 23.4635 135.987 22.1859 134.821C20.9082 133.656 15.9615 130.444 13.3532 133.303C10.7448 136.163 14.7602 139.825 17.7288 142.273Z"/>
</g>

</symbol><symbol id="screpka" viewBox="0 0 24 24">
<path d="M13.4955 4.94463C12.3245 3.78888 10.9225 3.21635 9.28926 3.22705C7.65606 3.23775 6.26159 3.8286 5.10584 4.99959C3.95009 6.17059 3.37757 7.57268 3.38827 9.20587C3.39897 10.8391 3.98981 12.2335 5.16081 13.3893L11.4099 19.557C12.2543 20.3905 13.2638 20.8034 14.4384 20.7957C15.613 20.788 16.617 20.3619 17.4504 19.5174C18.2839 18.6729 18.6968 17.6634 18.6891 16.4889C18.6814 15.3143 18.2553 14.3103 17.4109 13.4768L11.4996 7.64252C10.9817 7.13132 10.3647 6.87807 9.64881 6.88276C8.93289 6.88745 8.31933 7.14877 7.80813 7.66671C7.29694 8.18465 7.04368 8.80158 7.04837 9.5175C7.05307 10.2334 7.31438 10.847 7.83232 11.3582L14.0814 17.5259L15.4149 16.1747L9.16588 10.007C9.0195 9.86256 8.94569 9.69524 8.94445 9.50507C8.9432 9.31491 9.01481 9.14664 9.15928 9.00026C9.30375 8.85389 9.47107 8.78008 9.66123 8.77883C9.8514 8.77759 10.0197 8.8492 10.166 8.99367L16.0773 14.828C16.5391 15.306 16.7749 15.8666 16.7847 16.5097C16.7945 17.1529 16.566 17.711 16.0993 18.1839C15.6326 18.6568 15.0748 18.8953 14.426 18.8996C13.7772 18.9038 13.2163 18.6726 12.7434 18.2058L6.49437 12.0381C5.68382 11.2604 5.2777 10.315 5.276 9.2019C5.27431 8.08883 5.66797 7.13258 6.45699 6.33315C7.2349 5.54498 8.17479 5.15008 9.27668 5.14846C10.3786 5.14683 11.3403 5.52927 12.162 6.29577L18.7488 12.7969L20.0824 11.4457L13.4955 4.94463Z"/>
</symbol><symbol id="search" viewBox="0 0 18 18">
<path d="M1.4 18L7.7 11.7C8.2 12.1 8.775 12.4167 9.425 12.65C10.075 12.8833 10.7667 13 11.5 13C13.3167 13 14.8542 12.3708 16.1125 11.1125C17.3708 9.85417 18 8.31667 18 6.5C18 4.68333 17.3708 3.14583 16.1125 1.8875C14.8542 0.629167 13.3167 0 11.5 0C9.68333 0 8.14583 0.629167 6.8875 1.8875C5.62917 3.14583 5 4.68333 5 6.5C5 7.23333 5.11667 7.925 5.35 8.575C5.58333 9.225 5.9 9.8 6.3 10.3L0 16.6L1.4 18ZM11.5 11C10.25 11 9.1875 10.5625 8.3125 9.6875C7.4375 8.8125 7 7.75 7 6.5C7 5.25 7.4375 4.1875 8.3125 3.3125C9.1875 2.4375 10.25 2 11.5 2C12.75 2 13.8125 2.4375 14.6875 3.3125C15.5625 4.1875 16 5.25 16 6.5C16 7.75 15.5625 8.8125 14.6875 9.6875C13.8125 10.5625 12.75 11 11.5 11Z"/>
</symbol><symbol id="sortButton" viewBox="0 0 20 20">
<g clip-path="url(#clip0_2247_1694)">
<path d="M1 4.94043L5 0.94043L9 4.94043" stroke-linecap="square"/>
<path d="M5 19L5 2" stroke-linecap="square" stroke-linejoin="round"/>
<path d="M19 15.0605L15 19.0605L11 15.0605" stroke-linecap="square"/>
<path d="M15 0.999885L15 18" stroke-linecap="square" stroke-linejoin="round"/>
</g>

</symbol><symbol id="step1" viewBox="0 0 28 28">
<path d="M14.9183 12.5093C14.9183 12.2401 14.9989 11.9769 15.15 11.7531C15.3011 11.5293 15.5159 11.3548 15.7672 11.2518C16.0184 11.1488 16.2949 11.1218 16.5617 11.1743C16.8285 11.2268 17.0735 11.3565 17.2658 11.5468C17.4581 11.7372 17.5891 11.9797 17.6422 12.2437C17.6952 12.5078 17.668 12.7814 17.5639 13.0302C17.4598 13.2789 17.2836 13.4914 17.0574 13.641C16.8313 13.7906 16.5654 13.8704 16.2934 13.8704C15.9287 13.8704 15.5789 13.727 15.321 13.4717C15.0631 13.2165 14.9183 12.8703 14.9183 12.5093ZM24.9798 9.03618C24.8211 11.3307 23.7891 13.4802 22.0919 15.051C20.3947 16.6219 18.1587 17.4971 15.835 17.5H12.1679C11.8032 17.5 11.4534 17.6434 11.1956 17.8987C10.9377 18.1539 10.7928 18.5001 10.7928 18.8611C10.7928 19.2221 10.9377 19.5683 11.1956 19.8236C11.4534 20.0788 11.8032 20.2222 12.1679 20.2222H18.5854C18.8285 20.2222 19.0617 20.3178 19.2336 20.488C19.4055 20.6582 19.5021 20.889 19.5021 21.1296C19.5021 21.3703 19.4055 21.6011 19.2336 21.7713C19.0617 21.9415 18.8285 22.0371 18.5854 22.0371H13.0847V23.8519H16.7518C16.995 23.8519 17.2281 23.9475 17.4001 24.1176C17.572 24.2878 17.6686 24.5186 17.6686 24.7593C17.6686 24.9999 17.572 25.2307 17.4001 25.4009C17.2281 25.5711 16.995 25.6667 16.7518 25.6667H10.3344C7.90296 25.6667 5.57111 24.7107 3.85183 23.009C2.13255 21.3072 1.16666 18.9992 1.16666 16.5926C1.16666 14.186 2.13255 11.878 3.85183 10.1763C5.57111 8.47455 7.90296 7.51854 10.3344 7.51854H23.6276C23.9923 7.51854 24.3421 7.37514 24.6 7.11988C24.8579 6.86462 25.0028 6.51842 25.0028 6.15743C25.0028 5.79644 24.8579 5.45023 24.6 5.19498C24.3421 4.93972 23.9923 4.79632 23.6276 4.79632H14.0015C13.2721 4.79632 12.5725 4.50951 12.0567 3.999C11.5409 3.48848 11.2512 2.79607 11.2512 2.07409C11.2512 1.83343 11.3478 1.60263 11.5197 1.43246C11.6916 1.26229 11.9248 1.16669 12.1679 1.16669C12.4111 1.16669 12.6443 1.26229 12.8162 1.43246C12.9881 1.60263 13.0847 1.83343 13.0847 2.07409C13.0847 2.31475 13.1813 2.54556 13.3532 2.71573C13.5252 2.8859 13.7583 2.9815 14.0015 2.9815H23.6276C24.3578 2.98217 25.0659 3.22931 25.635 3.6821C26.204 4.13489 26.6001 4.76625 26.7577 5.47192C26.9153 6.17758 26.825 6.91535 26.5018 7.56338C26.1786 8.21141 25.6417 8.73094 24.9798 9.03618ZM5.15463 21.7297L8.96153 19.0381V18.8611C8.96087 18.5745 8.99942 18.2891 9.07612 18.0127L3.11481 15.3302C2.90749 16.481 2.98519 17.6644 3.34126 18.779C3.69732 19.8935 4.32113 20.906 5.15921 21.7297H5.15463ZM9.6239 20.7996L6.68105 22.8832C7.7915 23.5187 9.05171 23.8528 10.3344 23.8519H11.2512V21.9043C10.6071 21.7127 10.0397 21.3264 9.62848 20.7996H9.6239ZM11.2512 15.8179V9.33335H10.3344C8.92771 9.33491 7.55109 9.73641 6.36831 10.4901C5.18553 11.2437 4.24637 12.3178 3.66258 13.5846L10.0651 16.4644C10.4095 16.1679 10.8138 15.9475 11.2512 15.8179ZM23.1119 9.33335H13.0847V15.6852H15.835C17.6208 15.6831 19.3447 15.037 20.684 13.8679C22.0234 12.6988 22.8865 11.0868 23.1119 9.33335Z"/>
</symbol><symbol id="step2" viewBox="0 0 28 28">
<path d="M10.5 16.3333H12.8333V10.5H10.5V16.3333ZM5.83334 14.5833C4.93889 14.1361 4.22917 13.4896 3.70417 12.6437C3.17917 11.7979 2.91667 10.8791 2.91667 9.88748C2.91667 8.42915 3.41737 7.19442 4.41876 6.18331C5.42014 5.1722 6.65001 4.66665 8.10834 4.66665C8.34167 4.66665 8.57987 4.68609 8.82292 4.72498C9.06598 4.76387 9.30417 4.81248 9.53751 4.87081C10.0236 4.07359 10.6556 3.45137 11.4333 3.00415C12.2111 2.55692 13.0667 2.33331 14 2.33331C14.9333 2.33331 15.7889 2.55692 16.5667 3.00415C17.3445 3.45137 17.9764 4.07359 18.4625 4.87081C18.6958 4.81248 18.9292 4.76387 19.1625 4.72498C19.3958 4.68609 19.6389 4.66665 19.8917 4.66665C21.35 4.66665 22.5799 5.1722 23.5813 6.18331C24.5826 7.19442 25.0833 8.42915 25.0833 9.88748C25.0833 10.8791 24.8208 11.7979 24.2958 12.6437C23.7708 13.4896 23.0611 14.1361 22.1667 14.5833V21H5.83334V14.5833ZM15.1667 16.3333H17.5V10.5H15.1667V16.3333ZM8.16667 18.6666H19.8333V13.1541L21.1167 12.5125C21.6222 12.2597 22.0208 11.9048 22.3125 11.4479C22.6042 10.991 22.75 10.4805 22.75 9.91665C22.75 9.09998 22.4729 8.4097 21.9188 7.84581C21.3646 7.28192 20.6889 6.99998 19.8917 6.99998C19.6778 6.99998 19.4833 7.01942 19.3083 7.05831C19.1333 7.0972 18.9486 7.14581 18.7542 7.20415L17.3833 7.58331L16.4792 6.06665C16.207 5.61942 15.8521 5.27429 15.4146 5.03123C14.9771 4.78817 14.5056 4.66665 14 4.66665C13.4945 4.66665 13.0229 4.78817 12.5854 5.03123C12.1479 5.27429 11.7931 5.61942 11.5208 6.06665L10.6167 7.58331L9.21667 7.20415C9.02223 7.16526 8.83264 7.12151 8.64792 7.0729C8.4632 7.02428 8.27362 6.99998 8.07917 6.99998C7.28195 6.99998 6.61112 7.28192 6.06667 7.84581C5.52223 8.4097 5.25001 9.09998 5.25001 9.91665C5.25001 10.4805 5.39584 10.991 5.68751 11.4479C5.97917 11.9048 6.37778 12.2597 6.88334 12.5125L8.16667 13.1541V18.6666ZM5.83334 21H8.16667V23.3333H19.8333V21H22.1667V25.6666H5.83334V21Z"/>
</symbol><symbol id="step3" viewBox="0 0 28 28">
<path d="M25.6666 7.00002V21C25.6666 21.6417 25.4382 22.191 24.9812 22.6479C24.5243 23.1049 23.975 23.3334 23.3333 23.3334H4.66665C4.02498 23.3334 3.47567 23.1049 3.01873 22.6479C2.56179 22.191 2.33331 21.6417 2.33331 21V7.00002C2.33331 6.35835 2.56179 5.80905 3.01873 5.3521C3.47567 4.89516 4.02498 4.66669 4.66665 4.66669H23.3333C23.975 4.66669 24.5243 4.89516 24.9812 5.3521C25.4382 5.80905 25.6666 6.35835 25.6666 7.00002ZM4.66665 9.33335H23.3333V7.00002H4.66665V9.33335ZM4.66665 14V21H23.3333V14H4.66665Z"/>
</symbol><symbol id="step4" viewBox="0 0 28 28">
<path d="M4.66669 10.5C4.33613 10.5 4.05905 10.3882 3.83544 10.1646C3.61183 9.94097 3.50002 9.66389 3.50002 9.33333C3.50002 9.00277 3.61183 8.72569 3.83544 8.50208C4.05905 8.27847 4.33613 8.16666 4.66669 8.16666H8.16669C8.80835 8.16666 9.35766 8.39514 9.8146 8.85208C10.2715 9.30902 10.5 9.85833 10.5 10.5H4.66669ZM7.00002 21C7.97224 21 8.79863 20.6597 9.47919 19.9792C10.1597 19.2986 10.5 18.4722 10.5 17.5C10.5 16.5278 10.1597 15.7014 9.47919 15.0208C8.79863 14.3403 7.97224 14 7.00002 14C6.0278 14 5.20141 14.3403 4.52085 15.0208C3.8403 15.7014 3.50002 16.5278 3.50002 17.5C3.50002 18.4722 3.8403 19.2986 4.52085 19.9792C5.20141 20.6597 6.0278 21 7.00002 21ZM22.75 21C23.2361 21 23.6493 20.8299 23.9896 20.4896C24.3299 20.1493 24.5 19.7361 24.5 19.25C24.5 18.7639 24.3299 18.3507 23.9896 18.0104C23.6493 17.6701 23.2361 17.5 22.75 17.5C22.2639 17.5 21.8507 17.6701 21.5104 18.0104C21.1702 18.3507 21 18.7639 21 19.25C21 19.7361 21.1702 20.1493 21.5104 20.4896C21.8507 20.8299 22.2639 21 22.75 21ZM7.00002 19.25C6.51391 19.25 6.10072 19.0799 5.76044 18.7396C5.42016 18.3993 5.25002 17.9861 5.25002 17.5C5.25002 17.0139 5.42016 16.6007 5.76044 16.2604C6.10072 15.9201 6.51391 15.75 7.00002 15.75C7.48613 15.75 7.89933 15.9201 8.2396 16.2604C8.57988 16.6007 8.75002 17.0139 8.75002 17.5C8.75002 17.9861 8.57988 18.3993 8.2396 18.7396C7.89933 19.0799 7.48613 19.25 7.00002 19.25ZM23.3334 15.1958C23.8389 15.2931 24.257 15.4243 24.5875 15.5896C24.9181 15.7549 25.2778 16.0222 25.6667 16.3917V9.33333C25.6667 8.69166 25.4382 8.14236 24.9813 7.68541C24.5243 7.22847 23.975 7 23.3334 7H15.9834L14.7584 5.71666L16.3917 4.08333L15.575 3.26666L11.4334 7.40833L12.3084 8.225L13.9417 6.59166L15.1667 7.81666V10.5C15.1667 11.1417 14.9382 11.691 14.4813 12.1479C14.0243 12.6049 13.475 12.8333 12.8334 12.8333H10.4709C10.9181 13.1639 11.2778 13.5042 11.55 13.8542C11.8222 14.2042 12.0945 14.6417 12.3667 15.1667H12.8334C14.1167 15.1667 15.2153 14.7097 16.1292 13.7958C17.0431 12.8819 17.5 11.7833 17.5 10.5V9.33333H23.3334V15.1958ZM18.6959 18.6667C18.8125 18.1417 18.9535 17.7187 19.1188 17.3979C19.284 17.0771 19.5417 16.7222 19.8917 16.3333H12.7167C12.7945 16.7806 12.8334 17.1694 12.8334 17.5C12.8334 17.8306 12.7945 18.2194 12.7167 18.6667H18.6959ZM22.75 23.3333C21.6222 23.3333 20.6597 22.9347 19.8625 22.1375C19.0653 21.3403 18.6667 20.3778 18.6667 19.25C18.6667 18.1222 19.0653 17.1597 19.8625 16.3625C20.6597 15.5653 21.6222 15.1667 22.75 15.1667C23.8778 15.1667 24.8403 15.5653 25.6375 16.3625C26.4347 17.1597 26.8334 18.1222 26.8334 19.25C26.8334 20.3778 26.4347 21.3403 25.6375 22.1375C24.8403 22.9347 23.8778 23.3333 22.75 23.3333ZM7.00002 23.3333C5.38613 23.3333 4.01044 22.7646 2.87294 21.6271C1.73544 20.4896 1.16669 19.1139 1.16669 17.5C1.16669 15.8861 1.73544 14.5104 2.87294 13.3729C4.01044 12.2354 5.38613 11.6667 7.00002 11.6667C8.61391 11.6667 9.9896 12.2354 11.1271 13.3729C12.2646 14.5104 12.8334 15.8861 12.8334 17.5C12.8334 19.1139 12.2646 20.4896 11.1271 21.6271C9.9896 22.7646 8.61391 23.3333 7.00002 23.3333Z"/>
</symbol><symbol id="tgLogo" viewBox="0 0 22 20">
<path fill-rule="evenodd" clip-rule="evenodd" d="M18.8866 1.12314C19.1312 1.01411 19.3989 0.9765 19.6619 1.01424C19.9249 1.05198 20.1735 1.16368 20.3819 1.33772C20.5903 1.51177 20.7509 1.74178 20.8469 2.00384C20.9428 2.26589 20.9707 2.5504 20.9277 2.82775L18.6827 17.2498C18.4649 18.6409 17.0237 19.4387 15.8191 18.7458C14.8114 18.166 13.3147 17.2728 11.9685 16.3409C11.2954 15.8744 9.2336 14.3805 9.487 13.3175C9.70476 12.4085 13.1692 8.99305 15.1489 6.96241C15.926 6.16462 15.5716 5.7044 14.654 6.43824C12.3754 8.26025 8.71689 11.031 7.5073 11.811C6.44024 12.4987 5.88395 12.6161 5.21877 12.4987C4.00522 12.2848 2.87976 11.9536 1.96118 11.55C0.719912 11.0048 0.780293 9.19747 1.96019 8.6712L18.8866 1.12314Z" stroke-width="2"/>
</symbol><symbol id="tooltip" viewBox="0 0 18 18">
<path d="M8.95866 14C9.25033 14 9.49685 13.8993 9.69824 13.6979C9.89963 13.4965 10.0003 13.25 10.0003 12.9584C10.0003 12.6667 9.89963 12.4202 9.69824 12.2188C9.49685 12.0174 9.25033 11.9167 8.95866 11.9167C8.66699 11.9167 8.42046 12.0174 8.21908 12.2188C8.01769 12.4202 7.91699 12.6667 7.91699 12.9584C7.91699 13.25 8.01769 13.4965 8.21908 13.6979C8.42046 13.8993 8.66699 14 8.95866 14ZM8.20866 10.7917H9.75033C9.75033 10.3334 9.80241 9.97224 9.90658 9.70835C10.0107 9.44446 10.3059 9.08335 10.792 8.62502C11.1531 8.26391 11.4378 7.92016 11.6462 7.59377C11.8545 7.26738 11.9587 6.87502 11.9587 6.41669C11.9587 5.63891 11.6739 5.04169 11.1045 4.62502C10.535 4.20835 9.86144 4.00002 9.08366 4.00002C8.29199 4.00002 7.64963 4.20835 7.15658 4.62502C6.66352 5.04169 6.31977 5.54169 6.12533 6.12502L7.50033 6.66669C7.56977 6.41669 7.72602 6.14585 7.96908 5.85419C8.21213 5.56252 8.58366 5.41669 9.08366 5.41669C9.5281 5.41669 9.86144 5.53821 10.0837 5.78127C10.3059 6.02433 10.417 6.29169 10.417 6.58335C10.417 6.86113 10.3337 7.12155 10.167 7.3646C10.0003 7.60766 9.79199 7.83335 9.54199 8.04169C8.93088 8.58335 8.55588 8.99308 8.41699 9.27085C8.2781 9.54863 8.20866 10.0556 8.20866 10.7917ZM9.00033 17.3334C7.84755 17.3334 6.76421 17.1146 5.75033 16.6771C4.73644 16.2396 3.85449 15.6459 3.10449 14.8959C2.35449 14.1459 1.76074 13.2639 1.32324 12.25C0.885742 11.2361 0.666992 10.1528 0.666992 9.00002C0.666992 7.84724 0.885742 6.76391 1.32324 5.75002C1.76074 4.73613 2.35449 3.85419 3.10449 3.10419C3.85449 2.35419 4.73644 1.76044 5.75033 1.32294C6.76421 0.885437 7.84755 0.666687 9.00033 0.666687C10.1531 0.666687 11.2364 0.885437 12.2503 1.32294C13.2642 1.76044 14.1462 2.35419 14.8962 3.10419C15.6462 3.85419 16.2399 4.73613 16.6774 5.75002C17.1149 6.76391 17.3337 7.84724 17.3337 9.00002C17.3337 10.1528 17.1149 11.2361 16.6774 12.25C16.2399 13.2639 15.6462 14.1459 14.8962 14.8959C14.1462 15.6459 13.2642 16.2396 12.2503 16.6771C11.2364 17.1146 10.1531 17.3334 9.00033 17.3334ZM9.00033 15.6667C10.8614 15.6667 12.4378 15.0209 13.7295 13.7292C15.0212 12.4375 15.667 10.8611 15.667 9.00002C15.667 7.13891 15.0212 5.56252 13.7295 4.27085C12.4378 2.97919 10.8614 2.33335 9.00033 2.33335C7.13921 2.33335 5.56283 2.97919 4.27116 4.27085C2.97949 5.56252 2.33366 7.13891 2.33366 9.00002C2.33366 10.8611 2.97949 12.4375 4.27116 13.7292C5.56283 15.0209 7.13921 15.6667 9.00033 15.6667Z"/>
</symbol><symbol id="union" viewBox="0 0 25 15">
<g clip-path="url(#clip0_41_355)">
<path opacity="0.4" d="M15.8748 1.60156H9.10938V13.3928H15.8748V1.60156Z"/>
<path d="M9.55765 7.5C9.55765 5.10437 10.7186 2.97816 12.5 1.60437C11.189 0.604369 9.53513 0 7.73118 0C3.45777 0 0 3.35437 0 7.5C0 11.6456 3.45777 15 7.73118 15C9.53513 15 11.189 14.3956 12.5 13.3956C10.7161 12.0413 9.55765 9.89563 9.55765 7.5Z"/>
<path d="M25 7.5C25 11.6456 21.5422 15 17.2688 15C15.4649 15 13.811 14.3956 12.5 13.3956C14.3039 12.0194 15.4424 9.89563 15.4424 7.5C15.4424 5.10437 14.2814 2.97816 12.5 1.60437C13.8085 0.604369 15.4624 0 17.2663 0C21.5422 0 25 3.37621 25 7.5Z"/>
</g>

</symbol><symbol id="visa" viewBox="0 0 45 15">
<path d="M19.5047 14.786H15.8594L18.1394 0.265625H21.7845L19.5047 14.786Z"/>
<path d="M32.7162 0.618191C31.9972 0.324391 30.8568 0 29.4466 0C25.8468 0 23.3118 1.97714 23.2962 4.80386C23.2663 6.88941 25.1112 8.04777 26.491 8.74316C27.9014 9.45374 28.3808 9.91754 28.3808 10.5509C28.3664 11.5237 27.2411 11.9721 26.1916 11.9721C24.7363 11.9721 23.9564 11.7409 22.7714 11.1997L22.2914 10.9677L21.7812 14.2272C22.6362 14.6284 24.2114 14.9844 25.8468 15C29.6717 15 32.1618 13.0535 32.1913 10.0411C32.2059 8.38818 31.2317 7.12161 29.1315 6.08664C27.8565 5.42226 27.0757 4.97427 27.0757 4.29449C27.0907 3.6765 27.7361 3.04353 29.1753 3.04353C30.3604 3.01252 31.2311 3.30591 31.8907 3.59951L32.2204 3.7537L32.7162 0.618191Z"/>
<path d="M37.5618 9.64196C37.862 8.80778 39.0172 5.57927 39.0172 5.57927C39.002 5.61027 39.3168 4.7297 39.4968 4.18911L39.7515 5.44028C39.7515 5.44028 40.4418 8.91598 40.5917 9.64196C40.022 9.64196 38.2818 9.64196 37.5618 9.64196ZM42.0615 0.265625H39.2418C38.3723 0.265625 37.7117 0.528012 37.3365 1.47039L31.9219 14.7858H35.7468C35.7468 14.7858 36.3765 12.9937 36.5119 12.6077C36.9315 12.6077 40.6523 12.6077 41.1921 12.6077C41.2968 13.1175 41.6271 14.7858 41.6271 14.7858H45.0023L42.0615 0.265625Z"/>
<path d="M12.8125 0.265625L9.2425 10.1671L8.85239 8.159C8.19238 5.84187 6.12244 3.32434 3.8125 2.07257L7.08246 14.7706H10.9373L16.6671 0.265625H12.8125Z"/>
<path d="M5.92496 0.265625H0.0600008L0 0.559014C4.57503 1.76398 7.60499 4.66851 8.84986 8.15962L7.57489 1.4862C7.36498 0.558809 6.71992 0.296216 5.92496 0.265625Z"/>
</symbol><symbol id="vkLogo" viewBox="0 0 28 19">
<path d="M16.6 8.08208V3.15412C16.6 2.04347 16.4037 1.8208 15.326 1.8208L12.271 1.75013C11.3194 1.75013 10.8436 1.75013 10.6512 2.06613C10.4588 2.38213 10.672 2.81546 11.0971 3.67945C11.3337 4.15945 11.4611 4.50744 11.4611 5.04611V8.59274C11.4611 9.71273 11.4611 10.2741 11.0451 10.4407C10.6291 10.6061 10.2846 10.2301 9.59299 9.47807C7.903 7.63275 7.02161 5.32877 6.44311 2.81679C6.32351 2.2968 6.26371 2.0368 6.08431 1.8928C5.90491 1.7488 5.64881 1.75013 5.13922 1.75013H2.27923C1.65264 1.75013 1.33934 1.75013 1.14304 1.9768C0.948042 2.2048 0.985741 2.49546 1.06114 3.07546C1.74754 8.31141 6.23641 16.8967 14.5291 17.7153C15.9981 17.8593 16.6 17.4527 16.6 15.802C16.6 14.866 16.5805 13.354 17.7283 13.1554C18.3302 13.0514 18.7345 13.2714 19.4066 13.8487C20.5714 14.8514 21.1824 16.0753 21.6075 17.0047C21.8896 17.6207 22.0989 17.75 22.7619 17.75H25.4581C26.8205 17.75 27.191 17.4087 26.5839 16.0967C25.8978 14.6253 24.9264 13.3128 23.7291 12.2394C22.9023 11.5101 22.4902 11.1461 22.4681 10.8767C22.4434 10.6087 22.7463 10.2287 23.3521 9.46874C24.5221 7.99941 26.1159 5.6941 26.8595 3.24746C27.2287 2.03413 26.8816 1.75013 25.6843 1.75013H23.2624C22.0885 1.75013 22.0898 1.7088 21.8129 3.07412C21.3631 5.28877 19.8915 7.41809 18.5083 8.86741C17.8518 9.5554 17.4553 9.97007 17.0458 9.80073C16.6364 9.6314 16.6 9.11674 16.6 8.08208Z" stroke-width="2" stroke-linecap="round" stroke-linejoin="round"/>
</symbol><symbol id="whatsLogo" viewBox="0 0 20 20">
    <path d="M17.05 2.91005C16.1331 1.98415 15.041 1.25002 13.8375 0.750414C12.634 0.250812 11.3431 -0.00426316 10.04 5.3895e-05C4.58004 5.3895e-05 0.130049 4.45004 0.130049 9.91003C0.130049 11.66 0.590047 13.36 1.45005 14.86L0.0500488 20L5.30003 18.62C6.75003 19.41 8.38003 19.83 10.04 19.83C15.5 19.83 19.95 15.38 19.95 9.92003C19.95 7.27003 18.92 4.78004 17.05 2.91005ZM10.04 18.15C8.56003 18.15 7.11003 17.75 5.84003 17L5.54003 16.82L2.42004 17.64L3.25004 14.6L3.05004 14.29C2.22759 12.9771 1.79097 11.4593 1.79004 9.91003C1.79004 5.37004 5.49003 1.67005 10.03 1.67005C12.23 1.67005 14.3 2.53005 15.85 4.09004C16.6176 4.8539 17.2259 5.76258 17.6396 6.76336C18.0533 7.76415 18.2642 8.83712 18.26 9.92003C18.28 14.46 14.58 18.15 10.04 18.15ZM14.56 11.99C14.31 11.87 13.09 11.27 12.87 11.18C12.64 11.1 12.48 11.06 12.31 11.3C12.14 11.55 11.67 12.11 11.53 12.27C11.39 12.44 11.24 12.46 10.99 12.33C10.74 12.21 9.94002 11.94 9.00002 11.1C8.26003 10.44 7.77003 9.63003 7.62003 9.38003C7.48003 9.13003 7.60003 9.00003 7.73003 8.87003C7.84003 8.76003 7.98003 8.58003 8.10003 8.44003C8.22003 8.30003 8.27003 8.19003 8.35003 8.03003C8.43003 7.86003 8.39003 7.72003 8.33003 7.60003C8.27003 7.48003 7.77003 6.26004 7.57003 5.76004C7.37003 5.28004 7.16003 5.34004 7.01003 5.33004H6.53003C6.36003 5.33004 6.10003 5.39004 5.87003 5.64004C5.65003 5.89004 5.01004 6.49004 5.01004 7.71003C5.01004 8.93003 5.90003 10.11 6.02003 10.27C6.14003 10.44 7.77003 12.94 10.25 14.01C10.84 14.27 11.3 14.42 11.66 14.53C12.25 14.72 12.79 14.69 13.22 14.63C13.7 14.56 14.69 14.03 14.89 13.45C15.1 12.87 15.1 12.38 15.03 12.27C14.96 12.16 14.81 12.11 14.56 11.99Z"/>
</symbol></svg>