<svg xmlns="http://www.w3.org/2000/svg" xmlns:xlink="http://www.w3.org/1999/xlink"><defs>
<clipPath id="clip0_41_352">
<rect width="55" height="15" fill="white"/>
</clipPath>

<clipPath id="clip0_41_355">
<rect width="25" height="15" fill="white"/>
</clipPath>
</defs><symbol id="arrow-left" viewBox="0 0 8 14">
<path d="M7 1L1 7L7 13" stroke-width="2" stroke-linecap="round" stroke-linejoin="round"/>
</symbol><symbol id="arrow-right" viewBox="0 0 8 14">
<path d="M1 1L7 7L1 13" stroke-width="2" stroke-linecap="round" stroke-linejoin="round"/>
</symbol><symbol id="busket" viewBox="0 0 22 19">
<path d="M4.52502 19C4.07503 19 3.67502 18.8625 3.32502 18.5875C2.97502 18.3125 2.73336 17.9583 2.60002 17.525L0.0500248 8.275C-0.0333085 7.95833 0.0208581 7.66667 0.212525 7.4C0.404191 7.13333 0.666691 7 1.00002 7H5.75002L10.15 0.45C10.2334 0.316667 10.35 0.208333 10.5 0.125C10.65 0.0416667 10.8084 0 10.975 0C11.1417 0 11.3 0.0416667 11.45 0.125C11.6 0.208333 11.7167 0.316667 11.8 0.45L16.2 7H21C21.3334 7 21.5959 7.13333 21.7875 7.4C21.9792 7.66667 22.0334 7.95833 21.95 8.275L19.4 17.525C19.2667 17.9583 19.025 18.3125 18.675 18.5875C18.325 18.8625 17.925 19 17.475 19H4.52502ZM4.50002 17H17.5L19.7 9H2.30002L4.50002 17ZM11 15C11.55 15 12.0209 14.8042 12.4125 14.4125C12.8042 14.0208 13 13.55 13 13C13 12.45 12.8042 11.9792 12.4125 11.5875C12.0209 11.1958 11.55 11 11 11C10.45 11 9.97919 11.1958 9.58752 11.5875C9.19586 11.9792 9.00002 12.45 9.00002 13C9.00002 13.55 9.19586 14.0208 9.58752 14.4125C9.97919 14.8042 10.45 15 11 15ZM8.17502 7H13.8L10.975 2.8L8.17502 7Z"/>
</symbol><symbol id="close-button" viewBox="0 0 14 14">
    <path d="M1.4 14L0 12.6L5.6 7L0 1.4L1.4 0L7 5.6L12.6 0L14 1.4L8.4 7L14 12.6L12.6 14L7 8.4L1.4 14Z"/>
</symbol><symbol id="katalog" viewBox="0 0 18 18">
<path d="M5.5 7.5H2C1.45 7.5 0.979167 7.30417 0.5875 6.9125C0.195833 6.52083 0 6.05 0 5.5V2C0 1.45 0.195833 0.979167 0.5875 0.5875C0.979167 0.195833 1.45 0 2 0H5.5C6.05 0 6.52083 0.195833 6.9125 0.5875C7.30417 0.979167 7.5 1.45 7.5 2V5.5C7.5 6.05 7.30417 6.52083 6.9125 6.9125C6.52083 7.30417 6.05 7.5 5.5 7.5ZM2 5.5H5.5V2H2V5.5ZM5.5 18H2C1.45 18 0.979167 17.8042 0.5875 17.4125C0.195833 17.0208 0 16.55 0 16V12.5C0 11.95 0.195833 11.4792 0.5875 11.0875C0.979167 10.6958 1.45 10.5 2 10.5H5.5C6.05 10.5 6.52083 10.6958 6.9125 11.0875C7.30417 11.4792 7.5 11.95 7.5 12.5V16C7.5 16.55 7.30417 17.0208 6.9125 17.4125C6.52083 17.8042 6.05 18 5.5 18ZM2 16H5.5V12.5H2V16ZM16 7.5H12.5C11.95 7.5 11.4792 7.30417 11.0875 6.9125C10.6958 6.52083 10.5 6.05 10.5 5.5V2C10.5 1.45 10.6958 0.979167 11.0875 0.5875C11.4792 0.195833 11.95 0 12.5 0H16C16.55 0 17.0208 0.195833 17.4125 0.5875C17.8042 0.979167 18 1.45 18 2V5.5C18 6.05 17.8042 6.52083 17.4125 6.9125C17.0208 7.30417 16.55 7.5 16 7.5ZM12.5 5.5H16V2H12.5V5.5ZM16 18H12.5C11.95 18 11.4792 17.8042 11.0875 17.4125C10.6958 17.0208 10.5 16.55 10.5 16V12.5C10.5 11.95 10.6958 11.4792 11.0875 11.0875C11.4792 10.6958 11.95 10.5 12.5 10.5H16C16.55 10.5 17.0208 10.6958 17.4125 11.0875C17.8042 11.4792 18 11.95 18 12.5V16C18 16.55 17.8042 17.0208 17.4125 17.4125C17.0208 17.8042 16.55 18 16 18ZM12.5 16H16V12.5H12.5V16Z"/>
</symbol><symbol id="login" viewBox="0 0 20 20">
<path d="M3.85 15.1C4.7 14.45 5.65 13.9375 6.7 13.5625C7.75 13.1875 8.85 13 10 13C11.15 13 12.25 13.1875 13.3 13.5625C14.35 13.9375 15.3 14.45 16.15 15.1C16.7333 14.4167 17.1875 13.6417 17.5125 12.775C17.8375 11.9083 18 10.9833 18 10C18 7.78333 17.2208 5.89583 15.6625 4.3375C14.1042 2.77917 12.2167 2 10 2C7.78333 2 5.89583 2.77917 4.3375 4.3375C2.77917 5.89583 2 7.78333 2 10C2 10.9833 2.1625 11.9083 2.4875 12.775C2.8125 13.6417 3.26667 14.4167 3.85 15.1ZM10 11C9.01667 11 8.1875 10.6625 7.5125 9.9875C6.8375 9.3125 6.5 8.48333 6.5 7.5C6.5 6.51667 6.8375 5.6875 7.5125 5.0125C8.1875 4.3375 9.01667 4 10 4C10.9833 4 11.8125 4.3375 12.4875 5.0125C13.1625 5.6875 13.5 6.51667 13.5 7.5C13.5 8.48333 13.1625 9.3125 12.4875 9.9875C11.8125 10.6625 10.9833 11 10 11ZM10 20C8.61667 20 7.31667 19.7375 6.1 19.2125C4.88333 18.6875 3.825 17.975 2.925 17.075C2.025 16.175 1.3125 15.1167 0.7875 13.9C0.2625 12.6833 0 11.3833 0 10C0 8.61667 0.2625 7.31667 0.7875 6.1C1.3125 4.88333 2.025 3.825 2.925 2.925C3.825 2.025 4.88333 1.3125 6.1 0.7875C7.31667 0.2625 8.61667 0 10 0C11.3833 0 12.6833 0.2625 13.9 0.7875C15.1167 1.3125 16.175 2.025 17.075 2.925C17.975 3.825 18.6875 4.88333 19.2125 6.1C19.7375 7.31667 20 8.61667 20 10C20 11.3833 19.7375 12.6833 19.2125 13.9C18.6875 15.1167 17.975 16.175 17.075 17.075C16.175 17.975 15.1167 18.6875 13.9 19.2125C12.6833 19.7375 11.3833 20 10 20ZM10 18C10.8833 18 11.7167 17.8708 12.5 17.6125C13.2833 17.3542 14 16.9833 14.65 16.5C14 16.0167 13.2833 15.6458 12.5 15.3875C11.7167 15.1292 10.8833 15 10 15C9.11667 15 8.28333 15.1292 7.5 15.3875C6.71667 15.6458 6 16.0167 5.35 16.5C6 16.9833 6.71667 17.3542 7.5 17.6125C8.28333 17.8708 9.11667 18 10 18ZM10 9C10.4333 9 10.7917 8.85833 11.075 8.575C11.3583 8.29167 11.5 7.93333 11.5 7.5C11.5 7.06667 11.3583 6.70833 11.075 6.425C10.7917 6.14167 10.4333 6 10 6C9.56667 6 9.20833 6.14167 8.925 6.425C8.64167 6.70833 8.5 7.06667 8.5 7.5C8.5 7.93333 8.64167 8.29167 8.925 8.575C9.20833 8.85833 9.56667 9 10 9Z"/>
</symbol><symbol id="mir" viewBox="0 0 55 15">
<g clip-path="url(#clip0_41_352)">
<path d="M0 0.00244101H5.15986C5.62893 0.00244101 7.03617 -0.153784 7.66161 2.03336C8.13068 3.43938 8.75612 5.62653 9.69428 8.90724H10.007C10.9452 5.4703 11.7269 3.12693 12.0397 2.03336C12.6651 -0.153784 14.2287 0.00244101 14.8541 0.00244101H19.7013V15H14.6978V6.0952H14.3851L11.7269 15H7.97432L5.31622 6.0952H4.84714V15H0M21.7339 0.00244101H26.7374V8.90724H27.2065L30.4901 1.56469C31.1155 0.158666 32.5227 0.00244101 32.5227 0.00244101H37.2135V15H32.21V6.0952H31.8973L28.6138 13.4378C27.9883 14.8438 26.4247 15 26.4247 15H21.7339M43.937 10.4695V15H39.2462V7.18877H54.5694C53.944 9.06347 51.7549 10.4695 49.2532 10.4695"/>
<path d="M54.8783 6.25289C55.5038 3.44085 53.6275 0.00390625 49.5621 0.00390625H38.9297C39.2424 3.28462 42.0569 6.25289 45.0277 6.25289"/>
</g>

</symbol><symbol id="search" viewBox="0 0 18 18">
<path d="M1.4 18L7.7 11.7C8.2 12.1 8.775 12.4167 9.425 12.65C10.075 12.8833 10.7667 13 11.5 13C13.3167 13 14.8542 12.3708 16.1125 11.1125C17.3708 9.85417 18 8.31667 18 6.5C18 4.68333 17.3708 3.14583 16.1125 1.8875C14.8542 0.629167 13.3167 0 11.5 0C9.68333 0 8.14583 0.629167 6.8875 1.8875C5.62917 3.14583 5 4.68333 5 6.5C5 7.23333 5.11667 7.925 5.35 8.575C5.58333 9.225 5.9 9.8 6.3 10.3L0 16.6L1.4 18ZM11.5 11C10.25 11 9.1875 10.5625 8.3125 9.6875C7.4375 8.8125 7 7.75 7 6.5C7 5.25 7.4375 4.1875 8.3125 3.3125C9.1875 2.4375 10.25 2 11.5 2C12.75 2 13.8125 2.4375 14.6875 3.3125C15.5625 4.1875 16 5.25 16 6.5C16 7.75 15.5625 8.8125 14.6875 9.6875C13.8125 10.5625 12.75 11 11.5 11Z"/>
</symbol><symbol id="tgLogo" viewBox="0 0 22 20">
<path fill-rule="evenodd" clip-rule="evenodd" d="M18.8866 1.12314C19.1312 1.01411 19.3989 0.9765 19.6619 1.01424C19.9249 1.05198 20.1735 1.16368 20.3819 1.33772C20.5903 1.51177 20.7509 1.74178 20.8469 2.00384C20.9428 2.26589 20.9707 2.5504 20.9277 2.82775L18.6827 17.2498C18.4649 18.6409 17.0237 19.4387 15.8191 18.7458C14.8114 18.166 13.3147 17.2728 11.9685 16.3409C11.2954 15.8744 9.2336 14.3805 9.487 13.3175C9.70476 12.4085 13.1692 8.99305 15.1489 6.96241C15.926 6.16462 15.5716 5.7044 14.654 6.43824C12.3754 8.26025 8.71689 11.031 7.5073 11.811C6.44024 12.4987 5.88395 12.6161 5.21877 12.4987C4.00522 12.2848 2.87976 11.9536 1.96118 11.55C0.719912 11.0048 0.780293 9.19747 1.96019 8.6712L18.8866 1.12314Z" stroke-width="2"/>
</symbol><symbol id="union" viewBox="0 0 25 15">
<g clip-path="url(#clip0_41_355)">
<path opacity="0.4" d="M15.8748 1.60156H9.10938V13.3928H15.8748V1.60156Z"/>
<path d="M9.55765 7.5C9.55765 5.10437 10.7186 2.97816 12.5 1.60437C11.189 0.604369 9.53513 0 7.73118 0C3.45777 0 0 3.35437 0 7.5C0 11.6456 3.45777 15 7.73118 15C9.53513 15 11.189 14.3956 12.5 13.3956C10.7161 12.0413 9.55765 9.89563 9.55765 7.5Z"/>
<path d="M25 7.5C25 11.6456 21.5422 15 17.2688 15C15.4649 15 13.811 14.3956 12.5 13.3956C14.3039 12.0194 15.4424 9.89563 15.4424 7.5C15.4424 5.10437 14.2814 2.97816 12.5 1.60437C13.8085 0.604369 15.4624 0 17.2663 0C21.5422 0 25 3.37621 25 7.5Z"/>
</g>

</symbol><symbol id="visa" viewBox="0 0 45 15">
<path d="M19.5047 14.786H15.8594L18.1394 0.265625H21.7845L19.5047 14.786Z"/>
<path d="M32.7162 0.618191C31.9972 0.324391 30.8568 0 29.4466 0C25.8468 0 23.3118 1.97714 23.2962 4.80386C23.2663 6.88941 25.1112 8.04777 26.491 8.74316C27.9014 9.45374 28.3808 9.91754 28.3808 10.5509C28.3664 11.5237 27.2411 11.9721 26.1916 11.9721C24.7363 11.9721 23.9564 11.7409 22.7714 11.1997L22.2914 10.9677L21.7812 14.2272C22.6362 14.6284 24.2114 14.9844 25.8468 15C29.6717 15 32.1618 13.0535 32.1913 10.0411C32.2059 8.38818 31.2317 7.12161 29.1315 6.08664C27.8565 5.42226 27.0757 4.97427 27.0757 4.29449C27.0907 3.6765 27.7361 3.04353 29.1753 3.04353C30.3604 3.01252 31.2311 3.30591 31.8907 3.59951L32.2204 3.7537L32.7162 0.618191Z"/>
<path d="M37.5618 9.64196C37.862 8.80778 39.0172 5.57927 39.0172 5.57927C39.002 5.61027 39.3168 4.7297 39.4968 4.18911L39.7515 5.44028C39.7515 5.44028 40.4418 8.91598 40.5917 9.64196C40.022 9.64196 38.2818 9.64196 37.5618 9.64196ZM42.0615 0.265625H39.2418C38.3723 0.265625 37.7117 0.528012 37.3365 1.47039L31.9219 14.7858H35.7468C35.7468 14.7858 36.3765 12.9937 36.5119 12.6077C36.9315 12.6077 40.6523 12.6077 41.1921 12.6077C41.2968 13.1175 41.6271 14.7858 41.6271 14.7858H45.0023L42.0615 0.265625Z"/>
<path d="M12.8125 0.265625L9.2425 10.1671L8.85239 8.159C8.19238 5.84187 6.12244 3.32434 3.8125 2.07257L7.08246 14.7706H10.9373L16.6671 0.265625H12.8125Z"/>
<path d="M5.92496 0.265625H0.0600008L0 0.559014C4.57503 1.76398 7.60499 4.66851 8.84986 8.15962L7.57489 1.4862C7.36498 0.558809 6.71992 0.296216 5.92496 0.265625Z"/>
</symbol><symbol id="vkLogo" viewBox="0 0 28 19">
<path d="M16.6 8.08208V3.15412C16.6 2.04347 16.4037 1.8208 15.326 1.8208L12.271 1.75013C11.3194 1.75013 10.8436 1.75013 10.6512 2.06613C10.4588 2.38213 10.672 2.81546 11.0971 3.67945C11.3337 4.15945 11.4611 4.50744 11.4611 5.04611V8.59274C11.4611 9.71273 11.4611 10.2741 11.0451 10.4407C10.6291 10.6061 10.2846 10.2301 9.59299 9.47807C7.903 7.63275 7.02161 5.32877 6.44311 2.81679C6.32351 2.2968 6.26371 2.0368 6.08431 1.8928C5.90491 1.7488 5.64881 1.75013 5.13922 1.75013H2.27923C1.65264 1.75013 1.33934 1.75013 1.14304 1.9768C0.948042 2.2048 0.985741 2.49546 1.06114 3.07546C1.74754 8.31141 6.23641 16.8967 14.5291 17.7153C15.9981 17.8593 16.6 17.4527 16.6 15.802C16.6 14.866 16.5805 13.354 17.7283 13.1554C18.3302 13.0514 18.7345 13.2714 19.4066 13.8487C20.5714 14.8514 21.1824 16.0753 21.6075 17.0047C21.8896 17.6207 22.0989 17.75 22.7619 17.75H25.4581C26.8205 17.75 27.191 17.4087 26.5839 16.0967C25.8978 14.6253 24.9264 13.3128 23.7291 12.2394C22.9023 11.5101 22.4902 11.1461 22.4681 10.8767C22.4434 10.6087 22.7463 10.2287 23.3521 9.46874C24.5221 7.99941 26.1159 5.6941 26.8595 3.24746C27.2287 2.03413 26.8816 1.75013 25.6843 1.75013H23.2624C22.0885 1.75013 22.0898 1.7088 21.8129 3.07412C21.3631 5.28877 19.8915 7.41809 18.5083 8.86741C17.8518 9.5554 17.4553 9.97007 17.0458 9.80073C16.6364 9.6314 16.6 9.11674 16.6 8.08208Z" stroke-width="2" stroke-linecap="round" stroke-linejoin="round"/>
</symbol><symbol id="whatsLogo" viewBox="0 0 20 20">
<path d="M17.05 2.91005C16.1331 1.98415 15.041 1.25002 13.8375 0.750414C12.634 0.250812 11.3431 -0.00426316 10.04 5.3895e-05C4.58004 5.3895e-05 0.130049 4.45004 0.130049 9.91003C0.130049 11.66 0.590047 13.36 1.45005 14.86L0.0500488 20L5.30003 18.62C6.75003 19.41 8.38003 19.83 10.04 19.83C15.5 19.83 19.95 15.38 19.95 9.92003C19.95 7.27003 18.92 4.78004 17.05 2.91005ZM10.04 18.15C8.56003 18.15 7.11003 17.75 5.84003 17L5.54003 16.82L2.42004 17.64L3.25004 14.6L3.05004 14.29C2.22759 12.9771 1.79097 11.4593 1.79004 9.91003C1.79004 5.37004 5.49003 1.67005 10.03 1.67005C12.23 1.67005 14.3 2.53005 15.85 4.09004C16.6176 4.8539 17.2259 5.76258 17.6396 6.76336C18.0533 7.76415 18.2642 8.83712 18.26 9.92003C18.28 14.46 14.58 18.15 10.04 18.15ZM14.56 11.99C14.31 11.87 13.09 11.27 12.87 11.18C12.64 11.1 12.48 11.06 12.31 11.3C12.14 11.55 11.67 12.11 11.53 12.27C11.39 12.44 11.24 12.46 10.99 12.33C10.74 12.21 9.94002 11.94 9.00002 11.1C8.26003 10.44 7.77003 9.63003 7.62003 9.38003C7.48003 9.13003 7.60003 9.00003 7.73003 8.87003C7.84003 8.76003 7.98003 8.58003 8.10003 8.44003C8.22003 8.30003 8.27003 8.19003 8.35003 8.03003C8.43003 7.86003 8.39003 7.72003 8.33003 7.60003C8.27003 7.48003 7.77003 6.26004 7.57003 5.76004C7.37003 5.28004 7.16003 5.34004 7.01003 5.33004H6.53003C6.36003 5.33004 6.10003 5.39004 5.87003 5.64004C5.65003 5.89004 5.01004 6.49004 5.01004 7.71003C5.01004 8.93003 5.90003 10.11 6.02003 10.27C6.14003 10.44 7.77003 12.94 10.25 14.01C10.84 14.27 11.3 14.42 11.66 14.53C12.25 14.72 12.79 14.69 13.22 14.63C13.7 14.56 14.69 14.03 14.89 13.45C15.1 12.87 15.1 12.38 15.03 12.27C14.96 12.16 14.81 12.11 14.56 11.99Z"/>
</symbol></svg>